<svg id="Layer_1" data-name="Layer 1" xmlns="http://www.w3.org/2000/svg" width="473.7" height="567.6" viewBox="0 0 473.7 567.6">
  <title>custom-directives-flat</title>
  <rect y="219.9" width="473.7" height="347.77" fill="#e9ebf6"/>
  <g>
    <rect x="55.2" y="240.7" width="234.3" height="13.16" rx="6" ry="6" fill="#f9f9fa"/>
    <rect x="55.2" y="240.7" width="234.3" height="13.16" rx="6" ry="6" fill="none" stroke="#b5b9c6" stroke-miterlimit="10" stroke-dasharray="2 2"/>
  </g>
  <g>
    <path d="M301.6,254.3a.7.7,0,0,1,1.5,0v7.1a.7.7,0,0,1-1.5,0Z" transform="translate(-0.4 -23.8)" fill="#8e818c"/>
    <path d="M305.2,256.3a.7.7,0,0,1,.7-.7.7.7,0,0,1,.7.7v.3a2.3,2.3,0,0,1,2-1.1,2.2,2.2,0,0,1,2.3,2.4v3.4a.7.7,0,0,1-.7.7.7.7,0,0,1-.7-.7v-2.9c0-1-.5-1.5-1.4-1.5a1.4,1.4,0,0,0-1.4,1.6v2.9a.7.7,0,0,1-1.5,0Z" transform="translate(-0.4 -23.8)" fill="#8e818c"/>
    <path d="M312.4,261.4a.6.6,0,0,1-.3-.5.6.6,0,0,1,.6-.6h.3a3.3,3.3,0,0,0,1.8.6c.6,0,1-.3,1-.7h0c0-.5-.7-.7-1.4-.9s-2-.6-2-1.9h0a2,2,0,0,1,2.3-1.9,4.4,4.4,0,0,1,2,.5.6.6,0,0,1,.3.6.6.6,0,0,1-.6.6h-.3a3.5,3.5,0,0,0-1.5-.4c-.6,0-.9.3-.9.6h0c0,.5.7.7,1.4.9s2,.7,2,1.8h0c0,1.3-1,2-2.4,2A4.3,4.3,0,0,1,312.4,261.4Z" transform="translate(-0.4 -23.8)" fill="#8e818c"/>
    <path d="M321.5,262.1a3.2,3.2,0,0,1-3.2-3.3h0a3.1,3.1,0,0,1,3.1-3.3,3,3,0,0,1,3,3.1.7.7,0,0,1-.7.7h-4a1.8,1.8,0,0,0,1.8,1.6,2.3,2.3,0,0,0,1.5-.6h.4a.6.6,0,0,1,.6.6.6.6,0,0,1-.2.4A3.3,3.3,0,0,1,321.5,262.1Zm1.4-3.8a1.6,1.6,0,0,0-1.6-1.7,1.7,1.7,0,0,0-1.6,1.7Z" transform="translate(-0.4 -23.8)" fill="#8e818c"/>
    <path d="M325.9,256.3a.7.7,0,0,1,.7-.7.7.7,0,0,1,.7.7v.6a2,2,0,0,1,1.6-1.4.7.7,0,0,1,.7.7.7.7,0,0,1-.6.7c-1,.2-1.7,1-1.7,2.5v1.9a.7.7,0,0,1-.7.7.7.7,0,0,1-.7-.7Z" transform="translate(-0.4 -23.8)" fill="#8e818c"/>
    <path d="M331.1,260.2v-3.3h-.2a.6.6,0,1,1,0-1.2h.2v-1.1a.7.7,0,0,1,1.5,0v1.1h1.1a.6.6,0,1,1,0,1.2h-1.1V260a.7.7,0,0,0,.8.8h.4a.6.6,0,0,1,.6.6.6.6,0,0,1-.4.6l-1,.2A1.6,1.6,0,0,1,331.1,260.2Z" transform="translate(-0.4 -23.8)" fill="#8e818c"/>
    <path d="M335.7,254a.8.8,0,0,1,1.7,0h0a.8.8,0,0,1-1.7,0Zm.1,2.4a.7.7,0,0,1,.7-.7.7.7,0,0,1,.7.7v5a.7.7,0,0,1-1.5,0Z" transform="translate(-0.4 -23.8)" fill="#8e818c"/>
    <path d="M338.9,258.9h0a3.4,3.4,0,0,1,6.8,0h0a3.3,3.3,0,0,1-3.4,3.3A3.3,3.3,0,0,1,338.9,258.9Zm5.3,0h0a2,2,0,0,0-1.9-2,1.9,1.9,0,0,0-1.9,2h0a2,2,0,0,0,1.9,2A1.9,1.9,0,0,0,344.2,258.9Z" transform="translate(-0.4 -23.8)" fill="#8e818c"/>
    <path d="M347.1,256.3a.7.7,0,0,1,.7-.7.7.7,0,0,1,.7.7v.3a2.3,2.3,0,0,1,2-1.1,2.2,2.2,0,0,1,2.3,2.4v3.4a.7.7,0,0,1-.7.7.7.7,0,0,1-.7-.7v-2.9c0-1-.5-1.5-1.4-1.5a1.4,1.4,0,0,0-1.4,1.6v2.9a.7.7,0,0,1-1.5,0Z" transform="translate(-0.4 -23.8)" fill="#8e818c"/>
    <path d="M358.1,254a.8.8,0,0,1,1.7,0h0a.8.8,0,0,1-1.7,0Zm.1,2.4a.7.7,0,0,1,.7-.7.7.7,0,0,1,.7.7v5a.7.7,0,0,1-1.5,0Z" transform="translate(-0.4 -23.8)" fill="#8e818c"/>
    <path d="M361.6,256.3a.7.7,0,0,1,.7-.7.7.7,0,0,1,.7.7v.3a2.3,2.3,0,0,1,2-1.1,2.2,2.2,0,0,1,2.3,2.4v3.4a.7.7,0,0,1-.7.7.7.7,0,0,1-.7-.7v-2.9c0-1-.5-1.5-1.4-1.5a1.4,1.4,0,0,0-1.4,1.6v2.9a.7.7,0,0,1-1.5,0Z" transform="translate(-0.4 -23.8)" fill="#8e818c"/>
    <path d="M369.3,260.2v-3.3h-.2a.6.6,0,1,1,0-1.2h.2v-1.1a.7.7,0,0,1,1.5,0v1.1h1.1a.6.6,0,1,1,0,1.2h-1.1V260a.7.7,0,0,0,.8.8h.4a.6.6,0,0,1,.6.6.6.6,0,0,1-.4.6l-1,.2A1.6,1.6,0,0,1,369.3,260.2Z" transform="translate(-0.4 -23.8)" fill="#8e818c"/>
    <path d="M373.4,258.9h0a3.4,3.4,0,0,1,6.8,0h0a3.3,3.3,0,0,1-3.4,3.3A3.3,3.3,0,0,1,373.4,258.9Zm5.3,0h0a2,2,0,0,0-1.9-2,1.9,1.9,0,0,0-1.9,2h0a2,2,0,0,0,1.9,2A1.9,1.9,0,0,0,378.7,258.9Z" transform="translate(-0.4 -23.8)" fill="#8e818c"/>
    <path d="M385.5,260.2v-3.3h-.2a.6.6,0,1,1,0-1.2h.2v-1.1a.7.7,0,0,1,1.5,0v1.1h1.1a.6.6,0,1,1,0,1.2H387V260a.7.7,0,0,0,.8.8h.4a.6.6,0,0,1,.6.6.6.6,0,0,1-.4.6l-1,.2A1.6,1.6,0,0,1,385.5,260.2Z" transform="translate(-0.4 -23.8)" fill="#8e818c"/>
    <path d="M390.2,253.9a.7.7,0,0,1,.7-.7.7.7,0,0,1,.7.7v2.7a2.3,2.3,0,0,1,2-1.1,2.2,2.2,0,0,1,2.3,2.4v3.4a.7.7,0,0,1-.7.7.7.7,0,0,1-.7-.7v-2.9c0-1-.5-1.5-1.4-1.5a1.4,1.4,0,0,0-1.4,1.6v2.9a.7.7,0,0,1-1.5,0Z" transform="translate(-0.4 -23.8)" fill="#8e818c"/>
    <path d="M400.5,262.1a3.2,3.2,0,0,1-3.2-3.3h0a3.1,3.1,0,0,1,3.1-3.3,3,3,0,0,1,3,3.1.7.7,0,0,1-.7.7h-4a1.8,1.8,0,0,0,1.8,1.6,2.3,2.3,0,0,0,1.5-.6h.4a.6.6,0,0,1,.6.6.6.6,0,0,1-.2.4A3.3,3.3,0,0,1,400.5,262.1Zm1.4-3.8a1.6,1.6,0,0,0-1.6-1.7,1.7,1.7,0,0,0-1.6,1.7Z" transform="translate(-0.4 -23.8)" fill="#8e818c"/>
    <path d="M408.6,254.3a.7.7,0,0,1,.7-.7h2.4a4.2,4.2,0,0,1,4.5,4.2h0a4.2,4.2,0,0,1-4.5,4.2h-2.4a.7.7,0,0,1-.7-.7Zm3.1,6.3a2.7,2.7,0,0,0,2.9-2.8h0a2.8,2.8,0,0,0-2.9-2.9h-1.7v5.7Z" transform="translate(-0.4 -23.8)" fill="#8e818c"/>
    <path d="M417.6,257.8h0a4.4,4.4,0,0,1,8.8,0h0a4.4,4.4,0,0,1-8.8,0Zm7.2,0h0a2.9,2.9,0,0,0-2.9-3,2.8,2.8,0,0,0-2.8,3h0a2.9,2.9,0,0,0,2.9,3A2.8,2.8,0,0,0,424.9,257.8Z" transform="translate(-0.4 -23.8)" fill="#8e818c"/>
    <path d="M428.2,254.3a.7.7,0,0,1,.7-.7h.2a.8.8,0,0,1,.7.4l2.5,4,2.6-4a.7.7,0,0,1,.7-.4h.2a.7.7,0,0,1,.7.7v7a.7.7,0,0,1-.7.7.7.7,0,0,1-.7-.7v-5l-2.1,3.1a.7.7,0,0,1-1.2,0l-2-3.1v5a.7.7,0,0,1-.7.7.7.7,0,0,1-.7-.7Z" transform="translate(-0.4 -23.8)" fill="#8e818c"/>
  </g>
  <g>
    <rect x="64" y="425.7" width="217.5" height="96.21" rx="6" ry="6" fill="#fff" stroke="#b5b9c6" stroke-miterlimit="10" stroke-width="3"/>
    <g id="children" opacity="0.19">
      <rect x="65.1" y="426.2" width="16.6" height="95.65" fill="#fff" stroke="#d3d4dd" stroke-miterlimit="10"/>
      <rect x="81.7" y="426.2" width="16.6" height="95.65" fill="#fff" stroke="#d3d4dd" stroke-miterlimit="10"/>
      <rect x="98.3" y="426.2" width="16.6" height="95.65" fill="#fff" stroke="#d3d4dd" stroke-miterlimit="10"/>
      <rect x="114.9" y="426.2" width="16.6" height="95.65" fill="#fff" stroke="#d3d4dd" stroke-miterlimit="10"/>
      <rect x="131.6" y="426.2" width="16.6" height="95.65" fill="#fff" stroke="#d3d4dd" stroke-miterlimit="10"/>
      <rect x="148.2" y="426.2" width="16.6" height="95.65" fill="#fff" stroke="#d3d4dd" stroke-miterlimit="10"/>
      <rect x="164.8" y="426.2" width="16.6" height="95.65" fill="#fff" stroke="#d3d4dd" stroke-miterlimit="10"/>
      <rect x="181.4" y="426.2" width="16.6" height="95.65" fill="#fff" stroke="#d3d4dd" stroke-miterlimit="10"/>
      <rect x="198" y="426.2" width="16.6" height="95.65" fill="#fff" stroke="#d3d4dd" stroke-miterlimit="10"/>
      <rect x="214.6" y="426.2" width="16.6" height="95.65" fill="#fff" stroke="#d3d4dd" stroke-miterlimit="10"/>
      <rect x="231.3" y="426.2" width="16.6" height="95.65" fill="#fff" stroke="#d3d4dd" stroke-miterlimit="10"/>
      <rect x="247.9" y="426.2" width="16.6" height="95.65" fill="#fff" stroke="#d3d4dd" stroke-miterlimit="10"/>
      <rect x="264.5" y="426.2" width="16.6" height="95.65" fill="#fff" stroke="#d3d4dd" stroke-miterlimit="10"/>
    </g>
    <g>
      <path d="M104.8,464.3h0a4.2,4.2,0,0,1,4.3-4.3,4.4,4.4,0,0,1,2.9.9.7.7,0,0,1,.3.6.7.7,0,0,1-.7.7h-.4a3,3,0,0,0-2-.8,2.8,2.8,0,0,0-2.8,3h0a2.8,2.8,0,0,0,2.8,3,3,3,0,0,0,2.1-.8l.4-.2a.7.7,0,0,1,.7.7.7.7,0,0,1-.2.5,4.3,4.3,0,0,1-3,1.1A4.2,4.2,0,0,1,104.8,464.3Z" transform="translate(-0.4 -23.8)" fill="#0f1b2a"/>
      <path d="M113.4,464.3h0a4.4,4.4,0,0,1,8.8,0h0a4.4,4.4,0,0,1-8.8,0Zm7.2,0h0a2.9,2.9,0,0,0-2.9-3,2.8,2.8,0,0,0-2.8,3h0a2.9,2.9,0,0,0,2.9,3A2.8,2.8,0,0,0,120.6,464.3Z" transform="translate(-0.4 -23.8)" fill="#0f1b2a"/>
      <path d="M123.9,460.8a.7.7,0,0,1,.7-.7h.2a.8.8,0,0,1,.7.4l2.5,4,2.6-4a.7.7,0,0,1,.7-.4h.2a.7.7,0,0,1,.7.7v7a.7.7,0,0,1-.7.7.7.7,0,0,1-.7-.7v-5l-2.1,3.1a.7.7,0,0,1-1.2,0l-2-3.1v5a.7.7,0,0,1-.7.7.7.7,0,0,1-.7-.7Z" transform="translate(-0.4 -23.8)" fill="#0f1b2a"/>
      <path d="M134.4,460.8a.7.7,0,0,1,.7-.7h2.6c2,0,3.2,1.1,3.2,2.8h0c0,1.9-1.5,2.9-3.4,2.9h-1.7v2a.7.7,0,0,1-1.5,0Zm3.2,3.6c1.1,0,1.8-.6,1.8-1.5h0c0-1-.7-1.5-1.8-1.5h-1.7v3Z" transform="translate(-0.4 -23.8)" fill="#0f1b2a"/>
      <path d="M142,464.3h0a4.4,4.4,0,0,1,8.8,0h0a4.4,4.4,0,0,1-8.8,0Zm7.2,0h0a2.9,2.9,0,0,0-2.9-3,2.8,2.8,0,0,0-2.8,3h0a2.9,2.9,0,0,0,2.9,3A2.8,2.8,0,0,0,149.2,464.3Z" transform="translate(-0.4 -23.8)" fill="#0f1b2a"/>
      <path d="M152.6,460.8a.7.7,0,0,1,.7-.7h.2a.9.9,0,0,1,.8.4l4.2,5.4v-5.2a.7.7,0,0,1,1.5,0v7.1a.7.7,0,0,1-.7.7h-.1a.9.9,0,0,1-.8-.4l-4.3-5.6v5.3a.7.7,0,0,1-1.5,0Z" transform="translate(-0.4 -23.8)" fill="#0f1b2a"/>
      <path d="M162,467.8v-6.9a.7.7,0,0,1,.7-.7h4.9a.7.7,0,0,1,.7.7.7.7,0,0,1-.7.7h-4.1v2.2h3.6a.7.7,0,0,1,.7.7.7.7,0,0,1-.7.6h-3.6v2.3h4.2a.7.7,0,0,1,.7.7.7.7,0,0,1-.7.7h-4.9A.7.7,0,0,1,162,467.8Z" transform="translate(-0.4 -23.8)" fill="#0f1b2a"/>
      <path d="M170.1,460.8a.7.7,0,0,1,.7-.7h.2a.9.9,0,0,1,.8.4l4.2,5.4v-5.2a.7.7,0,0,1,1.5,0v7.1a.7.7,0,0,1-.7.7h-.1a.9.9,0,0,1-.8-.4l-4.3-5.6v5.3a.7.7,0,0,1-1.5,0Z" transform="translate(-0.4 -23.8)" fill="#0f1b2a"/>
      <path d="M181.6,461.5h-2a.7.7,0,1,1,0-1.4h5.6a.7.7,0,0,1,0,1.4h-2.1v6.4a.7.7,0,0,1-1.5,0Z" transform="translate(-0.4 -23.8)" fill="#0f1b2a"/>
      <path d="M187.2,464.9v-4.2a.7.7,0,0,1,1.5,0v4.1c0,1.6.8,2.4,2.1,2.4s2.1-.8,2.1-2.3v-4.2a.7.7,0,0,1,1.5,0v4.1c0,2.5-1.4,3.8-3.6,3.8S187.2,467.4,187.2,464.9Z" transform="translate(-0.4 -23.8)" fill="#0f1b2a"/>
      <path d="M196.4,460.8a.7.7,0,0,1,.7-.7h2.6c2,0,3.2,1.1,3.2,2.8h0c0,1.9-1.5,2.9-3.4,2.9h-1.7v2a.7.7,0,0,1-1.5,0Zm3.2,3.6c1.1,0,1.8-.6,1.8-1.5h0c0-1-.7-1.5-1.8-1.5h-1.7v3Z" transform="translate(-0.4 -23.8)" fill="#0f1b2a"/>
      <path d="M204.4,460.8a.7.7,0,0,1,.7-.7h2.4a4.2,4.2,0,0,1,4.5,4.2h0a4.2,4.2,0,0,1-4.5,4.2h-2.4a.7.7,0,0,1-.7-.7Zm3.1,6.3a2.7,2.7,0,0,0,2.9-2.8h0a2.8,2.8,0,0,0-2.9-2.9h-1.7v5.7Z" transform="translate(-0.4 -23.8)" fill="#0f1b2a"/>
      <path d="M212.9,467.5l3.1-7a.9.9,0,0,1,.9-.6h.1a.9.9,0,0,1,.9.6l3.1,7a.6.6,0,0,1,.1.3.7.7,0,0,1-.7.7.8.8,0,0,1-.7-.5l-.7-1.6h-4.1l-.7,1.6a.7.7,0,0,1-.7.5.7.7,0,0,1-.7-.7A.8.8,0,0,1,212.9,467.5Zm5.5-2.4-1.5-3.4-1.5,3.4Z" transform="translate(-0.4 -23.8)" fill="#0f1b2a"/>
      <path d="M223.8,461.5h-2a.7.7,0,0,1,0-1.4h5.6a.7.7,0,0,1,0,1.4h-2.1v6.4a.7.7,0,0,1-1.5,0Z" transform="translate(-0.4 -23.8)" fill="#0f1b2a"/>
      <path d="M229.5,467.8v-6.9a.7.7,0,0,1,.7-.7h4.9a.7.7,0,0,1,.7.7.7.7,0,0,1-.7.7H231v2.2h3.6a.7.7,0,0,1,.7.7.7.7,0,0,1-.7.6H231v2.3h4.2a.7.7,0,0,1,.7.7.7.7,0,0,1-.7.7h-4.9A.7.7,0,0,1,229.5,467.8Z" transform="translate(-0.4 -23.8)" fill="#0f1b2a"/>
      <path d="M237.5,460.8a.7.7,0,0,1,.7-.7h2.4a4.2,4.2,0,0,1,4.5,4.2h0a4.2,4.2,0,0,1-4.5,4.2h-2.4a.7.7,0,0,1-.7-.7Zm3.1,6.3a2.7,2.7,0,0,0,2.9-2.8h0a2.8,2.8,0,0,0-2.9-2.9H239v5.7Z" transform="translate(-0.4 -23.8)" fill="#0f1b2a"/>
    </g>
    <g>
      <rect x="72.7" y="455.3" width="33.4" height="38.35" rx="6" ry="6" fill="#fff" stroke="#d3d4dd" stroke-miterlimit="10"/>
      <g>
        <path d="M85.1,499.2v-4.9a.5.5,0,0,1,.5-.5h3.5a.5.5,0,0,1,.5.5.5.5,0,0,1-.5.5h-3v1.6h2.6a.5.5,0,0,1,.5.5.5.5,0,0,1-.5.5H86.1v1.6h3a.5.5,0,0,1,.5.5.5.5,0,0,1-.5.5H85.6A.5.5,0,0,1,85.1,499.2Z" transform="translate(-0.4 -23.8)" fill="#8e818c"/>
        <path d="M90.8,494.3a.5.5,0,0,1,1,0v4.5h2.7a.5.5,0,1,1,0,1H91.3a.5.5,0,0,1-.5-.5Z" transform="translate(-0.4 -23.8)" fill="#8e818c"/>
      </g>
    </g>
    <g>
      <rect x="111.5" y="455.3" width="50.1" height="38.35" rx="6" ry="6" fill="#fff" stroke="#d3d4dd" stroke-miterlimit="10"/>
      <g>
        <path d="M118.6,494.3a.5.5,0,0,1,.5-.5h2.1a2.2,2.2,0,0,1,1.6.5,1.3,1.3,0,0,1,.4,1h0a1.4,1.4,0,0,1-.9,1.3,1.5,1.5,0,0,1,1.2,1.5h0c0,1.1-.9,1.6-2.2,1.6h-2.2a.5.5,0,0,1-.5-.5Zm2.5,2c.7,0,1.1-.3,1.1-.8h0c0-.5-.4-.8-1-.8h-1.5v1.6Zm.3,2.5c.7,0,1.2-.3,1.2-.8h0c0-.5-.4-.8-1.2-.8h-1.7v1.6Z" transform="translate(-0.4 -23.8)" fill="#8e818c"/>
        <path d="M124.8,494.3a.5.5,0,0,1,1,0v5a.5.5,0,0,1-1,0Z" transform="translate(-0.4 -23.8)" fill="#8e818c"/>
        <path d="M127.4,494.3a.5.5,0,0,1,.5-.5h.1a.7.7,0,0,1,.5.3l3,3.9v-3.7a.5.5,0,0,1,1,0v5a.5.5,0,0,1-.5.5h0a.7.7,0,0,1-.5-.3l-3.1-4v3.8a.5.5,0,0,1-1,0Z" transform="translate(-0.4 -23.8)" fill="#8e818c"/>
        <path d="M134.1,494.3a.5.5,0,0,1,.5-.5h1.7a3,3,0,0,1,3.2,3h0a3,3,0,0,1-3.2,3h-1.7a.5.5,0,0,1-.5-.5Zm2.2,4.5a1.9,1.9,0,0,0,2.1-2h0a2,2,0,0,0-2.1-2h-1.2v4.1Z" transform="translate(-0.4 -23.8)" fill="#8e818c"/>
        <path d="M140.9,494.3a.5.5,0,0,1,1,0v5a.5.5,0,0,1-1,0Z" transform="translate(-0.4 -23.8)" fill="#8e818c"/>
        <path d="M143.5,494.3a.5.5,0,0,1,.5-.5h.1a.7.7,0,0,1,.5.3l3,3.9v-3.7a.5.5,0,0,1,1,0v5a.5.5,0,0,1-.5.5h0a.7.7,0,0,1-.5-.3l-3.1-4v3.8a.5.5,0,0,1-1,0Z" transform="translate(-0.4 -23.8)" fill="#8e818c"/>
        <path d="M150,496.8h0a3,3,0,0,1,3.1-3.1,3.2,3.2,0,0,1,2,.6.5.5,0,0,1,.2.4.5.5,0,0,1-.5.5h-.3a2.3,2.3,0,0,0-1.4-.5,2,2,0,0,0-1.9,2.1h0a2,2,0,0,0,2,2.1,2.4,2.4,0,0,0,1.4-.5v-1.1h-1.2a.5.5,0,0,1-.5-.5.5.5,0,0,1,.5-.5H155a.5.5,0,0,1,.5.5v1.6a.7.7,0,0,1-.4.7,3.8,3.8,0,0,1-2.1.6A3,3,0,0,1,150,496.8Z" transform="translate(-0.4 -23.8)" fill="#8e818c"/>
      </g>
    </g>
    <g>
      <rect x="166.5" y="455.3" width="43.4" height="38.35" rx="6" ry="6" fill="#fff" stroke="#d3d4dd" stroke-miterlimit="10"/>
      <g>
        <path d="M174.7,499.8l-2.1-4.9v-.2a.5.5,0,0,1,.5-.5.5.5,0,0,1,.5.4l1.7,4.3,1.7-4.3a.5.5,0,0,1,.5-.3.5.5,0,0,1,.5.5v.2l-2.1,4.9a.6.6,0,0,1-.6.4h-.1A.6.6,0,0,1,174.7,499.8Z" transform="translate(-0.4 -23.8)" fill="#8e818c"/>
        <path d="M179.2,494.6a.5.5,0,0,1,.5-.5h.1a.7.7,0,0,1,.5.3l3,3.9v-3.7a.5.5,0,0,1,1,0v5a.5.5,0,0,1-.5.5h0a.7.7,0,0,1-.5-.3l-3.1-4v3.8a.5.5,0,0,1-1,0Z" transform="translate(-0.4 -23.8)" fill="#8e818c"/>
        <path d="M185.6,497.1h0a3.1,3.1,0,0,1,6.2,0h0a3.1,3.1,0,0,1-6.2,0Zm5.1,0h0a2,2,0,0,0-2-2.1,2,2,0,0,0-2,2.1h0a2,2,0,0,0,2,2.1A2,2,0,0,0,190.8,497.1Z" transform="translate(-0.4 -23.8)" fill="#8e818c"/>
        <path d="M193.1,494.7a.5.5,0,0,1,.5-.5h1.7a3,3,0,0,1,3.2,3h0a3,3,0,0,1-3.2,3h-1.7a.5.5,0,0,1-.5-.5Zm2.2,4.5a1.9,1.9,0,0,0,2.1-2h0a2,2,0,0,0-2.1-2h-1.2v4.1Z" transform="translate(-0.4 -23.8)" fill="#8e818c"/>
        <path d="M199.8,499.6v-4.9a.5.5,0,0,1,.5-.5h3.5a.5.5,0,0,1,.5.5.5.5,0,0,1-.5.5h-3v1.6h2.6a.5.5,0,0,1,.5.5.5.5,0,0,1-.5.5h-2.6v1.6h3a.5.5,0,0,1,.5.5.5.5,0,0,1-.5.5h-3.5A.5.5,0,0,1,199.8,499.6Z" transform="translate(-0.4 -23.8)" fill="#8e818c"/>
      </g>
    </g>
    <g>
      <rect x="215.5" y="455.3" width="57.3" height="38.35" rx="6" ry="6" fill="#fff" stroke="#d3d4dd" stroke-miterlimit="10"/>
      <g>
        <path d="M219.7,496.8h0a3.1,3.1,0,0,1,6.2,0h0a3.1,3.1,0,0,1-6.2,0Zm5.1,0h0a2,2,0,0,0-2-2.1,2,2,0,0,0-2,2.1h0a2,2,0,0,0,2,2.1A2,2,0,0,0,224.9,496.8Z" transform="translate(-0.4 -23.8)" fill="#8e818c"/>
        <path d="M227.2,494.3a.5.5,0,0,1,1,0v4.5H231a.5.5,0,0,1,0,1h-3.2a.5.5,0,0,1-.5-.5Z" transform="translate(-0.4 -23.8)" fill="#8e818c"/>
        <path d="M232.5,494.3a.5.5,0,0,1,.5-.5h1.7a3,3,0,0,1,3.2,3h0a3,3,0,0,1-3.2,3H233a.5.5,0,0,1-.5-.5Zm2.2,4.5a1.9,1.9,0,0,0,2.1-2h0a2,2,0,0,0-2.1-2h-1.2v4.1Z" transform="translate(-0.4 -23.8)" fill="#8e818c"/>
        <path d="M240.6,499.4l-2.1-4.9v-.2a.5.5,0,0,1,.5-.5.5.5,0,0,1,.5.4l1.7,4.3,1.7-4.3a.5.5,0,0,1,.5-.3.5.5,0,0,1,.5.5v.2l-2.1,4.9a.6.6,0,0,1-.6.4h-.1A.6.6,0,0,1,240.6,499.4Z" transform="translate(-0.4 -23.8)" fill="#8e818c"/>
        <path d="M245.1,494.3a.5.5,0,0,1,.5-.5h.1a.7.7,0,0,1,.5.3l3,3.9v-3.7a.5.5,0,0,1,1,0v5a.5.5,0,0,1-.5.5h0a.7.7,0,0,1-.5-.3l-3.1-4v3.8a.5.5,0,0,1-1,0Z" transform="translate(-0.4 -23.8)" fill="#8e818c"/>
        <path d="M251.6,496.8h0a3.1,3.1,0,0,1,6.2,0h0a3.1,3.1,0,0,1-6.2,0Zm5.1,0h0a2,2,0,0,0-2-2.1,2,2,0,0,0-2,2.1h0a2,2,0,0,0,2,2.1A2,2,0,0,0,256.7,496.8Z" transform="translate(-0.4 -23.8)" fill="#8e818c"/>
        <path d="M259.1,494.3a.5.5,0,0,1,.5-.5h1.7a3,3,0,0,1,3.2,3h0a3,3,0,0,1-3.2,3h-1.7a.5.5,0,0,1-.5-.5Zm2.2,4.5a1.9,1.9,0,0,0,2.1-2h0a2,2,0,0,0-2.1-2h-1.2v4.1Z" transform="translate(-0.4 -23.8)" fill="#8e818c"/>
        <path d="M265.8,499.2v-4.9a.5.5,0,0,1,.5-.5h3.5a.5.5,0,0,1,.5.5.5.5,0,0,1-.5.5h-3v1.6h2.6a.5.5,0,0,1,.5.5.5.5,0,0,1-.5.5h-2.6v1.6h3a.5.5,0,0,1,.5.5.5.5,0,0,1-.5.5h-3.5A.5.5,0,0,1,265.8,499.2Z" transform="translate(-0.4 -23.8)" fill="#8e818c"/>
      </g>
    </g>
  </g>
  <g>
    <rect x="64.5" y="157.2" width="217.5" height="94" rx="6" ry="6" fill="#fff" stroke="#b5b9c6" stroke-miterlimit="10" stroke-width="3"/>
    <g>
      <path d="M159.1,193.3a.7.7,0,0,1,.7-.7h3a3,3,0,0,1,2.2.7,1.9,1.9,0,0,1,.6,1.4h0a2,2,0,0,1-1.2,1.9,2.1,2.1,0,0,1,1.7,2h0c0,1.5-1.2,2.3-3.1,2.3h-3.1a.7.7,0,0,1-.7-.7Zm3.5,2.8c.9,0,1.6-.4,1.6-1.1h0c0-.7-.5-1.1-1.5-1.1h-2.1v2.2Zm.4,3.6c1,0,1.6-.4,1.6-1.2h0c0-.7-.6-1.1-1.7-1.1h-2.3v2.3Z" transform="translate(-0.4 -23.8)" fill="#0f1b2a"/>
      <path d="M167.9,193.3a.7.7,0,0,1,1.5,0v7.1a.7.7,0,0,1-1.5,0Z" transform="translate(-0.4 -23.8)" fill="#0f1b2a"/>
      <path d="M171.6,193.3a.7.7,0,0,1,.7-.7h.2a.9.9,0,0,1,.8.4l4.2,5.4v-5.2a.7.7,0,0,1,1.5,0v7.1a.7.7,0,0,1-.7.7h-.1a.9.9,0,0,1-.8-.4L173,195v5.3a.7.7,0,0,1-1.5,0Z" transform="translate(-0.4 -23.8)" fill="#0f1b2a"/>
      <path d="M181.1,193.3a.7.7,0,0,1,.7-.7h2.4a4.2,4.2,0,0,1,4.5,4.2h0a4.2,4.2,0,0,1-4.5,4.2h-2.4a.7.7,0,0,1-.7-.7Zm3.1,6.3a2.7,2.7,0,0,0,2.9-2.8h0a2.8,2.8,0,0,0-2.9-2.9h-1.7v5.7Z" transform="translate(-0.4 -23.8)" fill="#0f1b2a"/>
    </g>
    <g>
      <rect x="75.2" y="186.2" width="47" height="54" rx="6" ry="6" fill="none" stroke="#d3d4dd" stroke-miterlimit="10"/>
      <g>
        <path d="M92.5,238.3v-6.9a.7.7,0,0,1,.7-.7h4.9a.7.7,0,0,1,.7.7.7.7,0,0,1-.7.7H93.9v2.2h3.6a.7.7,0,0,1,.7.7.7.7,0,0,1-.7.6H93.9v2.3h4.2a.7.7,0,0,1,.7.7.7.7,0,0,1-.7.7H93.2A.7.7,0,0,1,92.5,238.3Z" transform="translate(-0.4 -23.8)" fill="#8e818c"/>
        <path d="M100.5,231.3a.7.7,0,0,1,1.5,0v6.4h3.8a.7.7,0,1,1,0,1.3h-4.5a.7.7,0,0,1-.7-.7Z" transform="translate(-0.4 -23.8)" fill="#8e818c"/>
      </g>
    </g>
    <g>
      <rect x="129.8" y="186.2" width="70.6" height="54" rx="6" ry="6" fill="none" stroke="#d3d4dd" stroke-miterlimit="10"/>
      <g>
        <path d="M139.6,231.3a.7.7,0,0,1,.7-.7h3a3,3,0,0,1,2.2.7,1.9,1.9,0,0,1,.6,1.4h0a2,2,0,0,1-1.2,1.9,2.1,2.1,0,0,1,1.7,2h0c0,1.5-1.2,2.3-3.1,2.3h-3.1a.7.7,0,0,1-.7-.7Zm3.5,2.8c.9,0,1.6-.4,1.6-1.1h0c0-.7-.5-1.1-1.5-1.1H141v2.2Zm.4,3.6c1,0,1.6-.4,1.6-1.2h0c0-.7-.6-1.1-1.7-1.1H141v2.3Z" transform="translate(-0.4 -23.8)" fill="#8e818c"/>
        <path d="M148.3,231.3a.7.7,0,0,1,1.5,0v7.1a.7.7,0,0,1-1.5,0Z" transform="translate(-0.4 -23.8)" fill="#8e818c"/>
        <path d="M152.1,231.3a.7.7,0,0,1,.7-.7h.2a.9.9,0,0,1,.8.4l4.2,5.4v-5.2a.7.7,0,0,1,1.5,0v7.1a.7.7,0,0,1-.7.7h-.1a.9.9,0,0,1-.8-.4l-4.3-5.6v5.3a.7.7,0,0,1-1.5,0Z" transform="translate(-0.4 -23.8)" fill="#8e818c"/>
        <path d="M161.5,231.3a.7.7,0,0,1,.7-.7h2.4a4.2,4.2,0,0,1,4.5,4.2h0a4.2,4.2,0,0,1-4.5,4.2h-2.4a.7.7,0,0,1-.7-.7Zm3.1,6.3a2.7,2.7,0,0,0,2.9-2.8h0a2.8,2.8,0,0,0-2.9-2.9H163v5.7Z" transform="translate(-0.4 -23.8)" fill="#8e818c"/>
        <path d="M171,231.3a.7.7,0,0,1,1.5,0v7.1a.7.7,0,0,1-1.5,0Z" transform="translate(-0.4 -23.8)" fill="#8e818c"/>
        <path d="M174.7,231.3a.7.7,0,0,1,.7-.7h.2a.9.9,0,0,1,.8.4l4.2,5.4v-5.2a.7.7,0,0,1,1.5,0v7.1a.7.7,0,0,1-.7.7h-.1a.9.9,0,0,1-.8-.4l-4.3-5.6v5.3a.7.7,0,0,1-1.5,0Z" transform="translate(-0.4 -23.8)" fill="#8e818c"/>
        <path d="M183.8,234.8h0a4.3,4.3,0,0,1,4.3-4.3,4.6,4.6,0,0,1,2.9.9.7.7,0,0,1,.3.6.7.7,0,0,1-.7.7l-.5-.2a3.2,3.2,0,0,0-2-.7,2.8,2.8,0,0,0-2.7,3h0a2.8,2.8,0,0,0,2.9,3,3.4,3.4,0,0,0,2-.6v-1.6h-1.7a.6.6,0,0,1-.7-.6.7.7,0,0,1,.7-.6h2.3a.7.7,0,0,1,.7.7v2.2a1,1,0,0,1-.5.9,5.4,5.4,0,0,1-3,.9A4.2,4.2,0,0,1,183.8,234.8Z" transform="translate(-0.4 -23.8)" fill="#8e818c"/>
      </g>
    </g>
    <g>
      <rect x="207.3" y="186.2" width="61.1" height="54" rx="6" ry="6" fill="none" stroke="#d3d4dd" stroke-miterlimit="10"/>
      <g>
        <path d="M218.6,239l-2.9-6.9a.8.8,0,0,1-.1-.3.7.7,0,0,1,.7-.7.8.8,0,0,1,.8.5l2.4,6.1,2.5-6.1a.8.8,0,0,1,.7-.5.7.7,0,0,1,.7.7.8.8,0,0,1-.1.3l-3,7a.9.9,0,0,1-.9.6h-.1A.9.9,0,0,1,218.6,239Z" transform="translate(-0.4 -23.8)" fill="#8e818c"/>
        <path d="M224.9,231.8a.7.7,0,0,1,.7-.7h.2a.9.9,0,0,1,.8.4l4.2,5.4v-5.2a.7.7,0,0,1,1.5,0v7.1a.7.7,0,0,1-.7.7h-.1a.9.9,0,0,1-.8-.4l-4.3-5.6v5.3a.7.7,0,0,1-1.5,0Z" transform="translate(-0.4 -23.8)" fill="#8e818c"/>
        <path d="M234.1,235.3h0a4.4,4.4,0,0,1,8.8,0h0a4.4,4.4,0,0,1-8.8,0Zm7.2,0h0a2.9,2.9,0,0,0-2.9-3,2.8,2.8,0,0,0-2.8,3h0a2.9,2.9,0,0,0,2.9,3A2.8,2.8,0,0,0,241.3,235.3Z" transform="translate(-0.4 -23.8)" fill="#8e818c"/>
        <path d="M244.6,231.8a.7.7,0,0,1,.7-.7h2.4a4.2,4.2,0,0,1,4.5,4.2h0a4.2,4.2,0,0,1-4.5,4.2h-2.4a.7.7,0,0,1-.7-.7Zm3.1,6.3a2.7,2.7,0,0,0,2.9-2.8h0a2.8,2.8,0,0,0-2.9-2.9h-1.7v5.7Z" transform="translate(-0.4 -23.8)" fill="#8e818c"/>
        <path d="M254,238.8v-6.9a.7.7,0,0,1,.7-.7h4.9a.7.7,0,0,1,.7.7.7.7,0,0,1-.7.7h-4.1v2.2h3.6a.7.7,0,0,1,.7.7.7.7,0,0,1-.7.6h-3.6v2.3h4.2a.7.7,0,0,1,.7.7.7.7,0,0,1-.7.7h-4.9A.7.7,0,0,1,254,238.8Z" transform="translate(-0.4 -23.8)" fill="#8e818c"/>
      </g>
    </g>
  </g>
  <g>
    <rect x="64.5" y="348.2" width="217.5" height="79.85" rx="6" ry="6" fill="#fff" stroke="#b5b9c6" stroke-miterlimit="10" stroke-width="3"/>
    <g>
      <path d="M143.5,387.4v-4.2a.7.7,0,0,1,1.5,0v4.1c0,1.6.8,2.4,2.1,2.4s2.1-.8,2.1-2.3v-4.2a.7.7,0,0,1,1.5,0v4.1c0,2.5-1.4,3.8-3.6,3.8S143.5,389.9,143.5,387.4Z" transform="translate(-0.4 -23.8)" fill="#0f1b2a"/>
      <path d="M152.7,383.3a.7.7,0,0,1,.7-.7H156c2,0,3.2,1.1,3.2,2.8h0c0,1.9-1.5,2.9-3.4,2.9h-1.7v2a.7.7,0,0,1-1.5,0Zm3.2,3.6c1.1,0,1.8-.6,1.8-1.5h0c0-1-.7-1.5-1.8-1.5h-1.7v3Z" transform="translate(-0.4 -23.8)" fill="#0f1b2a"/>
      <path d="M160.7,383.3a.7.7,0,0,1,.7-.7h2.4a4.2,4.2,0,0,1,4.5,4.2h0a4.2,4.2,0,0,1-4.5,4.2h-2.4a.7.7,0,0,1-.7-.7Zm3.1,6.3a2.7,2.7,0,0,0,2.9-2.8h0a2.8,2.8,0,0,0-2.9-2.9h-1.7v5.7Z" transform="translate(-0.4 -23.8)" fill="#0f1b2a"/>
      <path d="M169.2,390l3.1-7a.9.9,0,0,1,.9-.6h.1a.9.9,0,0,1,.9.6l3.1,7a.6.6,0,0,1,.1.3.7.7,0,0,1-.7.7.8.8,0,0,1-.7-.5l-.7-1.6h-4.1l-.7,1.6a.7.7,0,0,1-.7.5.7.7,0,0,1-.7-.7A.8.8,0,0,1,169.2,390Zm5.5-2.4-1.5-3.4-1.5,3.4Z" transform="translate(-0.4 -23.8)" fill="#0f1b2a"/>
      <path d="M180.1,384h-2a.7.7,0,1,1,0-1.4h5.6a.7.7,0,0,1,0,1.4h-2.1v6.4a.7.7,0,0,1-1.5,0Z" transform="translate(-0.4 -23.8)" fill="#0f1b2a"/>
      <path d="M185.8,390.3v-6.9a.7.7,0,0,1,.7-.7h4.9a.7.7,0,0,1,.7.7.7.7,0,0,1-.7.7h-4.1v2.2h3.6a.7.7,0,0,1,.7.7.7.7,0,0,1-.7.6h-3.6v2.3h4.2a.7.7,0,0,1,.7.7.7.7,0,0,1-.7.7h-4.9A.7.7,0,0,1,185.8,390.3Z" transform="translate(-0.4 -23.8)" fill="#0f1b2a"/>
      <path d="M193.8,383.3a.7.7,0,0,1,.7-.7h2.4a4.2,4.2,0,0,1,4.5,4.2h0a4.2,4.2,0,0,1-4.5,4.2h-2.4a.7.7,0,0,1-.7-.7Zm3.1,6.3a2.7,2.7,0,0,0,2.9-2.8h0a2.8,2.8,0,0,0-2.9-2.9h-1.7v5.7Z" transform="translate(-0.4 -23.8)" fill="#0f1b2a"/>
    </g>
    <g>
      <rect x="73.2" y="377.8" width="33.4" height="38.35" rx="6" ry="6" fill="none" stroke="#d3d4dd" stroke-miterlimit="10"/>
      <g>
        <path d="M85.6,421.7v-4.9a.5.5,0,0,1,.5-.5h3.5a.5.5,0,0,1,.5.5.5.5,0,0,1-.5.5h-3v1.6h2.6a.5.5,0,0,1,.5.5.5.5,0,0,1-.5.5H86.6v1.6h3a.5.5,0,0,1,.5.5.5.5,0,0,1-.5.5H86.1A.5.5,0,0,1,85.6,421.7Z" transform="translate(-0.4 -23.8)" fill="#8e818c"/>
        <path d="M91.3,416.8a.5.5,0,0,1,1,0v4.5H95a.5.5,0,1,1,0,1H91.8a.5.5,0,0,1-.5-.5Z" transform="translate(-0.4 -23.8)" fill="#8e818c"/>
      </g>
    </g>
    <g>
      <rect x="112" y="377.8" width="50.1" height="38.35" rx="6" ry="6" fill="none" stroke="#d3d4dd" stroke-miterlimit="10"/>
      <g>
        <path d="M119.1,416.8a.5.5,0,0,1,.5-.5h2.1a2.2,2.2,0,0,1,1.6.5,1.3,1.3,0,0,1,.4,1h0a1.4,1.4,0,0,1-.9,1.3,1.5,1.5,0,0,1,1.2,1.5h0c0,1.1-.9,1.6-2.2,1.6h-2.2a.5.5,0,0,1-.5-.5Zm2.5,2c.7,0,1.1-.3,1.1-.8h0c0-.5-.4-.8-1-.8h-1.5v1.6Zm.3,2.5c.7,0,1.2-.3,1.2-.8h0c0-.5-.4-.8-1.2-.8h-1.7v1.6Z" transform="translate(-0.4 -23.8)" fill="#8e818c"/>
        <path d="M125.3,416.8a.5.5,0,0,1,1,0v5a.5.5,0,0,1-1,0Z" transform="translate(-0.4 -23.8)" fill="#8e818c"/>
        <path d="M127.9,416.8a.5.5,0,0,1,.5-.5h.1a.7.7,0,0,1,.5.3l3,3.9v-3.7a.5.5,0,0,1,1,0v5a.5.5,0,0,1-.5.5h0a.7.7,0,0,1-.5-.3l-3.1-4v3.8a.5.5,0,0,1-1,0Z" transform="translate(-0.4 -23.8)" fill="#8e818c"/>
        <path d="M134.6,416.8a.5.5,0,0,1,.5-.5h1.7a3,3,0,0,1,3.2,3h0a3,3,0,0,1-3.2,3h-1.7a.5.5,0,0,1-.5-.5Zm2.2,4.5a1.9,1.9,0,0,0,2.1-2h0a2,2,0,0,0-2.1-2h-1.2v4.1Z" transform="translate(-0.4 -23.8)" fill="#8e818c"/>
        <path d="M141.4,416.8a.5.5,0,0,1,1,0v5a.5.5,0,0,1-1,0Z" transform="translate(-0.4 -23.8)" fill="#8e818c"/>
        <path d="M144,416.8a.5.5,0,0,1,.5-.5h.1a.7.7,0,0,1,.5.3l3,3.9v-3.7a.5.5,0,0,1,1,0v5a.5.5,0,0,1-.5.5h0a.7.7,0,0,1-.5-.3l-3.1-4v3.8a.5.5,0,0,1-1,0Z" transform="translate(-0.4 -23.8)" fill="#8e818c"/>
        <path d="M150.5,419.3h0a3,3,0,0,1,3.1-3.1,3.2,3.2,0,0,1,2,.6.5.5,0,0,1,.2.4.5.5,0,0,1-.5.5H155a2.3,2.3,0,0,0-1.4-.5,2,2,0,0,0-1.9,2.1h0a2,2,0,0,0,2,2.1,2.4,2.4,0,0,0,1.4-.5v-1.1h-1.2a.5.5,0,0,1-.5-.5.5.5,0,0,1,.5-.5h1.7a.5.5,0,0,1,.5.5V421a.7.7,0,0,1-.4.7,3.8,3.8,0,0,1-2.1.6A3,3,0,0,1,150.5,419.3Z" transform="translate(-0.4 -23.8)" fill="#8e818c"/>
      </g>
    </g>
    <g>
      <rect x="167" y="377.8" width="43.4" height="38.35" rx="6" ry="6" fill="none" stroke="#d3d4dd" stroke-miterlimit="10"/>
      <g>
        <path d="M175.2,422.3l-2.1-4.9v-.2a.5.5,0,0,1,.5-.5.5.5,0,0,1,.5.4l1.7,4.3,1.7-4.3a.5.5,0,0,1,.5-.3.5.5,0,0,1,.5.5v.2l-2.1,4.9a.6.6,0,0,1-.6.4h-.1A.6.6,0,0,1,175.2,422.3Z" transform="translate(-0.4 -23.8)" fill="#8e818c"/>
        <path d="M179.7,417.1a.5.5,0,0,1,.5-.5h.1a.7.7,0,0,1,.5.3l3,3.9v-3.7a.5.5,0,0,1,1,0v5a.5.5,0,0,1-.5.5h0a.7.7,0,0,1-.5-.3l-3.1-4v3.8a.5.5,0,0,1-1,0Z" transform="translate(-0.4 -23.8)" fill="#8e818c"/>
        <path d="M186.1,419.6h0a3.1,3.1,0,0,1,6.2,0h0a3.1,3.1,0,0,1-6.2,0Zm5.1,0h0a2,2,0,0,0-2-2.1,2,2,0,0,0-2,2.1h0a2,2,0,0,0,2,2.1A2,2,0,0,0,191.3,419.6Z" transform="translate(-0.4 -23.8)" fill="#8e818c"/>
        <path d="M193.6,417.2a.5.5,0,0,1,.5-.5h1.7a3,3,0,0,1,3.2,3h0a3,3,0,0,1-3.2,3h-1.7a.5.5,0,0,1-.5-.5Zm2.2,4.5a1.9,1.9,0,0,0,2.1-2h0a2,2,0,0,0-2.1-2h-1.2v4.1Z" transform="translate(-0.4 -23.8)" fill="#8e818c"/>
        <path d="M200.3,422.1v-4.9a.5.5,0,0,1,.5-.5h3.5a.5.5,0,0,1,.5.5.5.5,0,0,1-.5.5h-3v1.6h2.6a.5.5,0,0,1,.5.5.5.5,0,0,1-.5.5h-2.6v1.6h3a.5.5,0,0,1,.5.5.5.5,0,0,1-.5.5h-3.5A.5.5,0,0,1,200.3,422.1Z" transform="translate(-0.4 -23.8)" fill="#8e818c"/>
      </g>
    </g>
    <g>
      <rect x="216" y="377.8" width="57.3" height="38.35" rx="6" ry="6" fill="none" stroke="#d3d4dd" stroke-miterlimit="10"/>
      <g>
        <path d="M220.2,419.3h0a3.1,3.1,0,0,1,6.2,0h0a3.1,3.1,0,0,1-6.2,0Zm5.1,0h0a2,2,0,0,0-2-2.1,2,2,0,0,0-2,2.1h0a2,2,0,0,0,2,2.1A2,2,0,0,0,225.4,419.3Z" transform="translate(-0.4 -23.8)" fill="#8e818c"/>
        <path d="M227.7,416.8a.5.5,0,0,1,1,0v4.5h2.7a.5.5,0,0,1,0,1h-3.2a.5.5,0,0,1-.5-.5Z" transform="translate(-0.4 -23.8)" fill="#8e818c"/>
        <path d="M233,416.8a.5.5,0,0,1,.5-.5h1.7a3,3,0,0,1,3.2,3h0a3,3,0,0,1-3.2,3h-1.7a.5.5,0,0,1-.5-.5Zm2.2,4.5a1.9,1.9,0,0,0,2.1-2h0a2,2,0,0,0-2.1-2h-1.2v4.1Z" transform="translate(-0.4 -23.8)" fill="#8e818c"/>
        <path d="M241.1,421.9,239,417v-.2a.5.5,0,0,1,.5-.5.5.5,0,0,1,.5.4l1.7,4.3,1.7-4.3a.5.5,0,0,1,.5-.3.5.5,0,0,1,.5.5v.2l-2.1,4.9a.6.6,0,0,1-.6.4h-.1A.6.6,0,0,1,241.1,421.9Z" transform="translate(-0.4 -23.8)" fill="#8e818c"/>
        <path d="M245.6,416.8a.5.5,0,0,1,.5-.5h.1a.7.7,0,0,1,.5.3l3,3.9v-3.7a.5.5,0,0,1,1,0v5a.5.5,0,0,1-.5.5h0a.7.7,0,0,1-.5-.3l-3.1-4v3.8a.5.5,0,0,1-1,0Z" transform="translate(-0.4 -23.8)" fill="#8e818c"/>
        <path d="M252.1,419.3h0a3.1,3.1,0,0,1,6.2,0h0a3.1,3.1,0,0,1-6.2,0Zm5.1,0h0a2,2,0,0,0-2-2.1,2,2,0,0,0-2,2.1h0a2,2,0,0,0,2,2.1A2,2,0,0,0,257.2,419.3Z" transform="translate(-0.4 -23.8)" fill="#8e818c"/>
        <path d="M259.6,416.8a.5.5,0,0,1,.5-.5h1.7a3,3,0,0,1,3.2,3h0a3,3,0,0,1-3.2,3h-1.7a.5.5,0,0,1-.5-.5Zm2.2,4.5a1.9,1.9,0,0,0,2.1-2h0a2,2,0,0,0-2.1-2h-1.2v4.1Z" transform="translate(-0.4 -23.8)" fill="#8e818c"/>
        <path d="M266.3,421.7v-4.9a.5.5,0,0,1,.5-.5h3.5a.5.5,0,0,1,.5.5.5.5,0,0,1-.5.5h-3v1.6h2.6a.5.5,0,0,1,.5.5.5.5,0,0,1-.5.5h-2.6v1.6h3a.5.5,0,0,1,.5.5.5.5,0,0,1-.5.5h-3.5A.5.5,0,0,1,266.3,421.7Z" transform="translate(-0.4 -23.8)" fill="#8e818c"/>
      </g>
    </g>
  </g>
  <g>
    <rect x="64" y="257.2" width="217.5" height="94" rx="6" ry="6" fill="#fff" stroke="#b5b9c6" stroke-miterlimit="10" stroke-width="3"/>
    <g>
      <path d="M143.2,292.3a.7.7,0,0,1,1.5,0v7.1a.7.7,0,0,1-1.5,0Z" transform="translate(-0.4 -23.8)" fill="#0f1b2a"/>
      <path d="M146.9,292.3a.7.7,0,0,1,.7-.7h.2a.9.9,0,0,1,.8.4l4.2,5.4v-5.2a.7.7,0,0,1,1.5,0v7.1a.7.7,0,0,1-.7.7h-.1a.9.9,0,0,1-.8-.4l-4.3-5.6v5.3a.7.7,0,0,1-1.5,0Z" transform="translate(-0.4 -23.8)" fill="#0f1b2a"/>
      <path d="M156.2,299.1a.7.7,0,0,1,.4-1.2h.4a3.6,3.6,0,0,0,2.4.9c.9,0,1.5-.4,1.5-1.1h0c0-.6-.3-.9-1.9-1.3s-2.8-1-2.8-2.5h0c0-1.4,1.2-2.4,2.9-2.4a4.6,4.6,0,0,1,2.7.8.7.7,0,0,1,.3.6.7.7,0,0,1-.7.7H161a3.5,3.5,0,0,0-1.9-.6c-.9,0-1.4.4-1.4,1h0c0,.6.4.9,2,1.3s2.7,1.1,2.7,2.5h0c0,1.6-1.2,2.5-3,2.5A5.2,5.2,0,0,1,156.2,299.1Z" transform="translate(-0.4 -23.8)" fill="#0f1b2a"/>
      <path d="M164.1,299.3v-6.9a.7.7,0,0,1,.7-.7h4.9a.7.7,0,0,1,.7.7.7.7,0,0,1-.7.7h-4.1v2.2h3.6a.7.7,0,0,1,.7.7.7.7,0,0,1-.7.6h-3.6v2.3h4.2a.7.7,0,0,1,.7.7.7.7,0,0,1-.7.7h-4.9A.7.7,0,0,1,164.1,299.3Z" transform="translate(-0.4 -23.8)" fill="#0f1b2a"/>
      <path d="M172.1,292.3a.7.7,0,0,1,.7-.7h3a3.4,3.4,0,0,1,2.4.8,2.5,2.5,0,0,1,.7,1.8h0a2.5,2.5,0,0,1-1.9,2.5l1.6,2a.9.9,0,0,1,.2.6.7.7,0,0,1-.7.7.8.8,0,0,1-.7-.4l-2-2.6h-1.9v2.3a.7.7,0,0,1-1.5,0Zm3.6,3.4c1.1,0,1.7-.6,1.7-1.4h0c0-.9-.6-1.4-1.7-1.4h-2.1v2.8Z" transform="translate(-0.4 -23.8)" fill="#0f1b2a"/>
      <path d="M182.8,293h-2a.7.7,0,0,1,0-1.4h5.6a.7.7,0,0,1,0,1.4h-2.1v6.4a.7.7,0,0,1-1.5,0Z" transform="translate(-0.4 -23.8)" fill="#0f1b2a"/>
      <path d="M188.5,299.3v-6.9a.7.7,0,0,1,.7-.7h4.9a.7.7,0,0,1,.7.7.7.7,0,0,1-.7.7H190v2.2h3.6a.7.7,0,0,1,.7.7.7.7,0,0,1-.7.6H190v2.3h4.2a.7.7,0,0,1,.7.7.7.7,0,0,1-.7.7h-4.9A.7.7,0,0,1,188.5,299.3Z" transform="translate(-0.4 -23.8)" fill="#0f1b2a"/>
      <path d="M196.6,292.3a.7.7,0,0,1,.7-.7h2.4a4.2,4.2,0,0,1,4.5,4.2h0a4.2,4.2,0,0,1-4.5,4.2h-2.4a.7.7,0,0,1-.7-.7Zm3.1,6.3a2.7,2.7,0,0,0,2.9-2.8h0a2.8,2.8,0,0,0-2.9-2.9h-1.7v5.7Z" transform="translate(-0.4 -23.8)" fill="#0f1b2a"/>
    </g>
    <g>
      <rect x="74.7" y="286.2" width="47" height="54" rx="6" ry="6" fill="none" stroke="#d3d4dd" stroke-miterlimit="10"/>
      <g>
        <path d="M92,338.3v-6.9a.7.7,0,0,1,.7-.7h4.9a.7.7,0,0,1,.7.7.7.7,0,0,1-.7.7H93.4v2.2H97a.7.7,0,0,1,.7.7.7.7,0,0,1-.7.6H93.4v2.3h4.2a.7.7,0,0,1,.7.7.7.7,0,0,1-.7.7H92.7A.7.7,0,0,1,92,338.3Z" transform="translate(-0.4 -23.8)" fill="#8e818c"/>
        <path d="M100,331.3a.7.7,0,0,1,1.5,0v6.4h3.8a.7.7,0,1,1,0,1.3h-4.5a.7.7,0,0,1-.7-.7Z" transform="translate(-0.4 -23.8)" fill="#8e818c"/>
      </g>
    </g>
    <g>
      <rect x="129.3" y="286.2" width="70.6" height="54" rx="6" ry="6" fill="none" stroke="#d3d4dd" stroke-miterlimit="10"/>
      <g>
        <path d="M139.1,331.3a.7.7,0,0,1,.7-.7h3a3,3,0,0,1,2.2.7,1.9,1.9,0,0,1,.6,1.4h0a2,2,0,0,1-1.2,1.9,2.1,2.1,0,0,1,1.7,2h0c0,1.5-1.2,2.3-3.1,2.3h-3.1a.7.7,0,0,1-.7-.7Zm3.5,2.8c.9,0,1.6-.4,1.6-1.1h0c0-.7-.5-1.1-1.5-1.1h-2.1v2.2Zm.4,3.6c1,0,1.6-.4,1.6-1.2h0c0-.7-.6-1.1-1.7-1.1h-2.3v2.3Z" transform="translate(-0.4 -23.8)" fill="#8e818c"/>
        <path d="M147.8,331.3a.7.7,0,0,1,1.5,0v7.1a.7.7,0,0,1-1.5,0Z" transform="translate(-0.4 -23.8)" fill="#8e818c"/>
        <path d="M151.6,331.3a.7.7,0,0,1,.7-.7h.2a.9.9,0,0,1,.8.4l4.2,5.4v-5.2a.7.7,0,0,1,1.5,0v7.1a.7.7,0,0,1-.7.7h-.1a.9.9,0,0,1-.8-.4L153,333v5.3a.7.7,0,0,1-1.5,0Z" transform="translate(-0.4 -23.8)" fill="#8e818c"/>
        <path d="M161,331.3a.7.7,0,0,1,.7-.7h2.4a4.2,4.2,0,0,1,4.5,4.2h0a4.2,4.2,0,0,1-4.5,4.2h-2.4a.7.7,0,0,1-.7-.7Zm3.1,6.3a2.7,2.7,0,0,0,2.9-2.8h0a2.8,2.8,0,0,0-2.9-2.9h-1.7v5.7Z" transform="translate(-0.4 -23.8)" fill="#8e818c"/>
        <path d="M170.5,331.3a.7.7,0,0,1,1.5,0v7.1a.7.7,0,0,1-1.5,0Z" transform="translate(-0.4 -23.8)" fill="#8e818c"/>
        <path d="M174.2,331.3a.7.7,0,0,1,.7-.7h.2a.9.9,0,0,1,.8.4l4.2,5.4v-5.2a.7.7,0,0,1,1.5,0v7.1a.7.7,0,0,1-.7.7h-.1a.9.9,0,0,1-.8-.4l-4.3-5.6v5.3a.7.7,0,0,1-1.5,0Z" transform="translate(-0.4 -23.8)" fill="#8e818c"/>
        <path d="M183.3,334.8h0a4.3,4.3,0,0,1,4.3-4.3,4.6,4.6,0,0,1,2.9.9.7.7,0,0,1,.3.6.7.7,0,0,1-.7.7l-.5-.2a3.2,3.2,0,0,0-2-.7,2.8,2.8,0,0,0-2.7,3h0a2.8,2.8,0,0,0,2.9,3,3.4,3.4,0,0,0,2-.6v-1.6h-1.7a.6.6,0,0,1-.7-.6.7.7,0,0,1,.7-.6h2.3a.7.7,0,0,1,.7.7v2.2a1,1,0,0,1-.5.9,5.4,5.4,0,0,1-3,.9A4.2,4.2,0,0,1,183.3,334.8Z" transform="translate(-0.4 -23.8)" fill="#8e818c"/>
      </g>
    </g>
    <g>
      <rect x="206.8" y="286.2" width="61.1" height="54" rx="6" ry="6" fill="none" stroke="#d3d4dd" stroke-miterlimit="10"/>
      <g>
        <path d="M218.1,339l-2.9-6.9a.8.8,0,0,1-.1-.3.7.7,0,0,1,.7-.7.8.8,0,0,1,.8.5l2.4,6.1,2.5-6.1a.8.8,0,0,1,.7-.5.7.7,0,0,1,.7.7.8.8,0,0,1-.1.3l-3,7a.9.9,0,0,1-.9.6h-.1A.9.9,0,0,1,218.1,339Z" transform="translate(-0.4 -23.8)" fill="#8e818c"/>
        <path d="M224.4,331.8a.7.7,0,0,1,.7-.7h.2a.9.9,0,0,1,.8.4l4.2,5.4v-5.2a.7.7,0,0,1,1.5,0v7.1a.7.7,0,0,1-.7.7H231a.9.9,0,0,1-.8-.4l-4.3-5.6v5.3a.7.7,0,0,1-1.5,0Z" transform="translate(-0.4 -23.8)" fill="#8e818c"/>
        <path d="M233.6,335.3h0a4.4,4.4,0,0,1,8.8,0h0a4.4,4.4,0,0,1-8.8,0Zm7.2,0h0a2.9,2.9,0,0,0-2.9-3,2.8,2.8,0,0,0-2.8,3h0a2.9,2.9,0,0,0,2.9,3A2.8,2.8,0,0,0,240.8,335.3Z" transform="translate(-0.4 -23.8)" fill="#8e818c"/>
        <path d="M244.1,331.8a.7.7,0,0,1,.7-.7h2.4a4.2,4.2,0,0,1,4.5,4.2h0a4.2,4.2,0,0,1-4.5,4.2h-2.4a.7.7,0,0,1-.7-.7Zm3.1,6.3a2.7,2.7,0,0,0,2.9-2.8h0a2.8,2.8,0,0,0-2.9-2.9h-1.7v5.7Z" transform="translate(-0.4 -23.8)" fill="#8e818c"/>
        <path d="M253.5,338.8v-6.9a.7.7,0,0,1,.7-.7h4.9a.7.7,0,0,1,.7.7.7.7,0,0,1-.7.7H255v2.2h3.6a.7.7,0,0,1,.7.7.7.7,0,0,1-.7.6H255v2.3h4.2a.7.7,0,0,1,.7.7.7.7,0,0,1-.7.7h-4.9A.7.7,0,0,1,253.5,338.8Z" transform="translate(-0.4 -23.8)" fill="#8e818c"/>
      </g>
    </g>
  </g>
  <path d="M49.1,406.8H43.9l6.6-6.4,6.4,6.6H51.7V416a10.4,10.4,0,0,1-10.5,10.3,10.4,10.4,0,0,1-10.3-10.5v-9.1h2.6v9.1a7.8,7.8,0,0,0,13.3,5.7,7.5,7.5,0,0,0,2.3-5.5Z" transform="translate(-0.4 -23.8)" fill="#0f1b2a"/>
  <g>
    <path d="M76.9,530.8H75l2.4-2.3,2.3,2.4H77.9v3.3a3.8,3.8,0,0,1-7.5-.1v-3.3h.9v3.3a2.8,2.8,0,0,0,5.7.1Z" transform="translate(-0.4 -23.8)" fill="#8e818c"/>
    <path d="M93.3,530.8H91.4l2.4-2.3,2.3,2.4H94.2v3.3a3.8,3.8,0,0,1-7.5-.1v-3.3h.9v3.3a2.8,2.8,0,0,0,5.7.1Z" transform="translate(-0.4 -23.8)" fill="#8e818c"/>
    <path d="M109.6,530.8h-1.9l2.4-2.3,2.3,2.4h-1.9v3.3a3.8,3.8,0,0,1-7.5-.1v-3.3h.9v3.3a2.8,2.8,0,0,0,5.7.1Z" transform="translate(-0.4 -23.8)" fill="#8e818c"/>
    <path d="M125.9,530.8H124l2.4-2.3,2.3,2.4h-1.9v3.3a3.8,3.8,0,0,1-7.5-.1v-3.3h.9v3.3a2.8,2.8,0,0,0,5.7.1Z" transform="translate(-0.4 -23.8)" fill="#8e818c"/>
  </g>
  <g>
    <path d="M142.9,530.8H141l2.4-2.3,2.3,2.4h-1.9v3.3a3.8,3.8,0,0,1-7.5-.1v-3.3h.9v3.3a2.8,2.8,0,0,0,5.7.1Z" transform="translate(-0.4 -23.8)" fill="#8e818c"/>
    <path d="M159.3,530.8h-1.9l2.4-2.3,2.3,2.4h-1.9v3.3a3.8,3.8,0,0,1-7.5-.1v-3.3h.9v3.3a2.8,2.8,0,0,0,5.7.1Z" transform="translate(-0.4 -23.8)" fill="#8e818c"/>
    <path d="M175.6,530.8h-1.9l2.4-2.3,2.3,2.4h-1.9v3.3a3.8,3.8,0,0,1-7.5-.1v-3.3h.9v3.3a2.8,2.8,0,0,0,5.7.1Z" transform="translate(-0.4 -23.8)" fill="#8e818c"/>
    <path d="M191.9,530.8H190l2.4-2.3,2.3,2.4h-1.9v3.3a3.8,3.8,0,0,1-7.5-.1v-3.3h.9v3.3a2.8,2.8,0,0,0,5.7.1Z" transform="translate(-0.4 -23.8)" fill="#8e818c"/>
  </g>
  <g>
    <path d="M208.9,530.8H207l2.4-2.3,2.3,2.4h-1.9v3.3a3.8,3.8,0,0,1-7.5-.1v-3.3h.9v3.3a2.8,2.8,0,0,0,5.7.1Z" transform="translate(-0.4 -23.8)" fill="#8e818c"/>
    <path d="M225.3,530.8h-1.9l2.4-2.3,2.3,2.4h-1.9v3.3a3.8,3.8,0,0,1-7.5-.1v-3.3h.9v3.3a2.8,2.8,0,0,0,5.7.1Z" transform="translate(-0.4 -23.8)" fill="#8e818c"/>
    <path d="M241.6,530.8h-1.9l2.4-2.3,2.3,2.4h-1.9v3.3a3.8,3.8,0,0,1-7.5-.1v-3.3h.9v3.3a2.8,2.8,0,0,0,5.7.1Z" transform="translate(-0.4 -23.8)" fill="#8e818c"/>
    <path d="M257.9,530.8H256l2.4-2.3,2.3,2.4h-1.9v3.3a3.8,3.8,0,0,1-7.5-.1v-3.3h.9v3.3a2.8,2.8,0,0,0,5.7.1Z" transform="translate(-0.4 -23.8)" fill="#8e818c"/>
    <path d="M273.9,530.8H272l2.4-2.3,2.3,2.4h-1.9v3.3a3.8,3.8,0,0,1-7.5-.1v-3.3h.9v3.3a2.8,2.8,0,0,0,5.7.1Z" transform="translate(-0.4 -23.8)" fill="#8e818c"/>
  </g>
  <g>
    <path d="M306,496.8h0a4.2,4.2,0,0,1,4.3-4.3,4.4,4.4,0,0,1,2.9.9.7.7,0,0,1,.3.6.7.7,0,0,1-.7.7h-.4a3,3,0,0,0-2-.8,2.8,2.8,0,0,0-2.8,3h0a2.8,2.8,0,0,0,2.8,3,3,3,0,0,0,2.1-.8l.4-.2a.7.7,0,0,1,.7.7.7.7,0,0,1-.2.5,4.3,4.3,0,0,1-3,1.1A4.2,4.2,0,0,1,306,496.8Z" transform="translate(-0.4 -23.8)" fill="#8e818c"/>
    <path d="M315,492.9a.7.7,0,0,1,.7-.7.7.7,0,0,1,.7.7v2.7a2.3,2.3,0,0,1,2-1.1,2.2,2.2,0,0,1,2.3,2.4v3.4a.7.7,0,0,1-.7.7.7.7,0,0,1-.7-.7v-2.9c0-1-.5-1.5-1.4-1.5a1.4,1.4,0,0,0-1.4,1.6v2.9a.7.7,0,0,1-1.5,0Z" transform="translate(-0.4 -23.8)" fill="#8e818c"/>
    <path d="M322.5,493a.8.8,0,0,1,1.7,0h0a.8.8,0,0,1-1.7,0Zm.1,2.4a.7.7,0,0,1,.7-.7.7.7,0,0,1,.7.7v5a.7.7,0,0,1-1.5,0Z" transform="translate(-0.4 -23.8)" fill="#8e818c"/>
    <path d="M326,492.9a.7.7,0,0,1,.7-.7.7.7,0,0,1,.7.7v7.4a.7.7,0,0,1-1.5,0Z" transform="translate(-0.4 -23.8)" fill="#8e818c"/>
    <path d="M335.6,500.3a.7.7,0,0,1-1.5,0v-.4a2.5,2.5,0,0,1-2.2,1.2,3,3,0,0,1-2.9-3.3h0a3,3,0,0,1,2.9-3.3,2.6,2.6,0,0,1,2.2,1.1v-2.7a.7.7,0,0,1,1.5,0Zm-5.1-2.5h0a1.9,1.9,0,0,0,1.8,2,1.9,1.9,0,0,0,1.8-2h0a1.9,1.9,0,0,0-1.8-2A1.9,1.9,0,0,0,330.5,497.8Z" transform="translate(-0.4 -23.8)" fill="#8e818c"/>
    <path d="M337.4,495.3a.7.7,0,0,1,.7-.7.7.7,0,0,1,.7.7v.6a2,2,0,0,1,1.6-1.4.7.7,0,0,1,.1,1.4c-1,.2-1.7,1-1.7,2.5v1.9a.7.7,0,0,1-.7.7.7.7,0,0,1-.7-.7Z" transform="translate(-0.4 -23.8)" fill="#8e818c"/>
    <path d="M345,501.1a3.2,3.2,0,0,1-3.2-3.3h0a3.1,3.1,0,0,1,3.1-3.3,3,3,0,0,1,3,3.1.7.7,0,0,1-.7.7h-4a1.8,1.8,0,0,0,1.8,1.6,2.3,2.3,0,0,0,1.5-.6h.4a.6.6,0,0,1,.6.6.6.6,0,0,1-.2.4A3.3,3.3,0,0,1,345,501.1Zm1.4-3.8a1.6,1.6,0,0,0-1.6-1.7,1.7,1.7,0,0,0-1.6,1.7Z" transform="translate(-0.4 -23.8)" fill="#8e818c"/>
    <path d="M349.4,495.3a.7.7,0,0,1,.7-.7.7.7,0,0,1,.7.7v.3a2.3,2.3,0,0,1,2-1.1,2.2,2.2,0,0,1,2.3,2.4v3.4a.7.7,0,0,1-.7.7.7.7,0,0,1-.7-.7v-2.9c0-1-.5-1.5-1.4-1.5a1.4,1.4,0,0,0-1.4,1.6v2.9a.7.7,0,0,1-1.5,0Z" transform="translate(-0.4 -23.8)" fill="#8e818c"/>
    <path d="M360,499.2h0c0-1.4,1.1-2,2.6-2a5.3,5.3,0,0,1,1.7.3v-.2c0-.9-.6-1.4-1.6-1.4l-1.4.3h-.2a.6.6,0,0,1-.6-.6.6.6,0,0,1,.4-.6,5.4,5.4,0,0,1,2-.4,2.8,2.8,0,0,1,2.1.7,2.6,2.6,0,0,1,.7,2v3.1a.7.7,0,0,1-.7.7.7.7,0,0,1-.7-.6v-.2a2.6,2.6,0,0,1-2.1.9A2,2,0,0,1,360,499.2Zm4.3-.5v-.4a4,4,0,0,0-1.4-.3c-.9,0-1.5.4-1.5,1.1h0c0,.6.5,1,1.2,1S364.3,499.5,364.3,498.7Z" transform="translate(-0.4 -23.8)" fill="#8e818c"/>
    <path d="M367.5,495.3a.7.7,0,0,1,.7-.7.7.7,0,0,1,.7.7v.6a2,2,0,0,1,1.6-1.4.7.7,0,0,1,.1,1.4c-1,.2-1.7,1-1.7,2.5v1.9a.7.7,0,0,1-.7.7.7.7,0,0,1-.7-.7Z" transform="translate(-0.4 -23.8)" fill="#8e818c"/>
    <path d="M375.1,501.1a3.2,3.2,0,0,1-3.2-3.3h0a3.1,3.1,0,0,1,3.1-3.3,3,3,0,0,1,3,3.1.7.7,0,0,1-.7.7h-4a1.8,1.8,0,0,0,1.8,1.6,2.3,2.3,0,0,0,1.5-.6h.4a.6.6,0,0,1,.6.6.6.6,0,0,1-.2.4A3.3,3.3,0,0,1,375.1,501.1Zm1.4-3.8a1.6,1.6,0,0,0-1.6-1.7,1.7,1.7,0,0,0-1.6,1.7Z" transform="translate(-0.4 -23.8)" fill="#8e818c"/>
    <path d="M388.7,500.3a.7.7,0,0,1-1.5,0V500a2.3,2.3,0,0,1-2,1.1,2.2,2.2,0,0,1-2.3-2.4v-3.4a.7.7,0,1,1,1.5,0v2.9c0,1,.5,1.5,1.4,1.5a1.4,1.4,0,0,0,1.4-1.6v-2.9a.7.7,0,0,1,.7-.7.7.7,0,0,1,.7.7Z" transform="translate(-0.4 -23.8)" fill="#8e818c"/>
    <path d="M390.5,495.3a.7.7,0,0,1,.7-.7.7.7,0,0,1,.7.7v.4a2.5,2.5,0,0,1,2.2-1.2,3,3,0,0,1,2.9,3.3h0a3,3,0,0,1-2.9,3.3,2.6,2.6,0,0,1-2.2-1.1v2.2a.7.7,0,0,1-1.5,0Zm5.1,2.5h0a1.9,1.9,0,0,0-1.8-2,1.9,1.9,0,0,0-1.8,2h0a1.9,1.9,0,0,0,1.8,2A1.9,1.9,0,0,0,395.6,497.8Z" transform="translate(-0.4 -23.8)" fill="#8e818c"/>
    <path d="M404.8,500.3a.7.7,0,0,1-1.5,0v-.4a2.5,2.5,0,0,1-2.2,1.2,3,3,0,0,1-2.9-3.3h0a3,3,0,0,1,2.9-3.3,2.6,2.6,0,0,1,2.2,1.1v-2.7a.7.7,0,0,1,1.5,0Zm-5.1-2.5h0a1.9,1.9,0,0,0,1.8,2,1.9,1.9,0,0,0,1.8-2h0a1.9,1.9,0,0,0-1.8-2A1.9,1.9,0,0,0,399.7,497.8Z" transform="translate(-0.4 -23.8)" fill="#8e818c"/>
    <path d="M406.2,499.2h0c0-1.4,1.1-2,2.6-2a5.3,5.3,0,0,1,1.7.3v-.2c0-.9-.6-1.4-1.6-1.4l-1.4.3h-.2a.6.6,0,0,1-.6-.6.6.6,0,0,1,.4-.6,5.4,5.4,0,0,1,2-.4,2.8,2.8,0,0,1,2.1.7,2.6,2.6,0,0,1,.7,2v3.1a.7.7,0,0,1-.7.7.7.7,0,0,1-.7-.6v-.2a2.6,2.6,0,0,1-2.1.9A2,2,0,0,1,406.2,499.2Zm4.3-.5v-.4a4,4,0,0,0-1.4-.3c-.9,0-1.5.4-1.5,1.1h0c0,.6.5,1,1.2,1S410.5,499.5,410.5,498.7Z" transform="translate(-0.4 -23.8)" fill="#8e818c"/>
    <path d="M413.9,499.2v-3.3h-.2a.6.6,0,1,1,0-1.2h.2v-1.1a.7.7,0,0,1,1.5,0v1.1h1.1a.6.6,0,1,1,0,1.2h-1.1V499a.7.7,0,0,0,.8.8h.4a.6.6,0,0,1,.6.6.6.6,0,0,1-.4.6l-1,.2A1.6,1.6,0,0,1,413.9,499.2Z" transform="translate(-0.4 -23.8)" fill="#8e818c"/>
    <path d="M421.2,501.1a3.2,3.2,0,0,1-3.2-3.3h0a3.1,3.1,0,0,1,3.1-3.3,3,3,0,0,1,3,3.1.7.7,0,0,1-.7.7h-4a1.8,1.8,0,0,0,1.8,1.6,2.3,2.3,0,0,0,1.5-.6h.4a.6.6,0,0,1,.6.6.6.6,0,0,1-.2.4A3.3,3.3,0,0,1,421.2,501.1Zm1.4-3.8a1.6,1.6,0,0,0-1.6-1.7,1.7,1.7,0,0,0-1.6,1.7Z" transform="translate(-0.4 -23.8)" fill="#8e818c"/>
    <path d="M431.8,500.3a.7.7,0,0,1-1.5,0v-.4a2.5,2.5,0,0,1-2.2,1.2,3,3,0,0,1-2.9-3.3h0a3,3,0,0,1,2.9-3.3,2.6,2.6,0,0,1,2.2,1.1v-2.7a.7.7,0,0,1,1.5,0Zm-5.1-2.5h0a1.9,1.9,0,0,0,1.8,2,1.9,1.9,0,0,0,1.8-2h0a1.9,1.9,0,0,0-1.8-2A1.9,1.9,0,0,0,426.7,497.8Z" transform="translate(-0.4 -23.8)" fill="#8e818c"/>
  </g>
  <g>
    <path d="M311.6,417.3v-6.9a.7.7,0,0,1,.7-.7h4.9a.7.7,0,0,1,.7.7.7.7,0,0,1-.7.7h-4.1v2.2h3.6a.7.7,0,0,1,.7.7.7.7,0,0,1-.7.6h-3.6v2.3h4.2a.7.7,0,0,1,.7.7.7.7,0,0,1-.7.7h-4.9A.7.7,0,0,1,311.6,417.3Z" transform="translate(-0.4 -23.8)" fill="#8e818c"/>
    <path d="M319.6,409.9a.7.7,0,0,1,.7-.7.7.7,0,0,1,.7.7v7.4a.7.7,0,0,1-1.5,0Z" transform="translate(-0.4 -23.8)" fill="#8e818c"/>
    <path d="M325.8,418.1a3.2,3.2,0,0,1-3.2-3.3h0a3.1,3.1,0,0,1,3.1-3.3,3,3,0,0,1,3,3.1.7.7,0,0,1-.7.7h-4a1.8,1.8,0,0,0,1.8,1.6,2.3,2.3,0,0,0,1.5-.6h.4a.6.6,0,0,1,.6.6.6.6,0,0,1-.2.4A3.3,3.3,0,0,1,325.8,418.1Zm1.4-3.8a1.6,1.6,0,0,0-1.6-1.7,1.7,1.7,0,0,0-1.6,1.7Z" transform="translate(-0.4 -23.8)" fill="#8e818c"/>
    <path d="M330.2,412.3a.7.7,0,0,1,.7-.7.7.7,0,0,1,.7.7v.3a2.3,2.3,0,0,1,1.9-1.1,2,2,0,0,1,1.9,1.1,2.6,2.6,0,0,1,2.1-1.1,2.1,2.1,0,0,1,2.2,2.4v3.4a.7.7,0,0,1-.7.7.7.7,0,0,1-.7-.7v-2.9c0-1-.5-1.5-1.3-1.5s-1.4.6-1.4,1.6v2.9a.7.7,0,0,1-1.5,0v-2.9c0-1-.5-1.5-1.3-1.5a1.4,1.4,0,0,0-1.4,1.6v2.9a.7.7,0,0,1-1.5,0Z" transform="translate(-0.4 -23.8)" fill="#8e818c"/>
    <path d="M344.5,418.1a3.2,3.2,0,0,1-3.2-3.3h0a3.1,3.1,0,0,1,3.1-3.3,3,3,0,0,1,3,3.1.7.7,0,0,1-.7.7h-4a1.8,1.8,0,0,0,1.8,1.6,2.3,2.3,0,0,0,1.5-.6h.4a.6.6,0,0,1,.6.6.6.6,0,0,1-.2.4A3.3,3.3,0,0,1,344.5,418.1Zm1.4-3.8a1.6,1.6,0,0,0-1.6-1.7,1.7,1.7,0,0,0-1.6,1.7Z" transform="translate(-0.4 -23.8)" fill="#8e818c"/>
    <path d="M348.8,412.3a.7.7,0,0,1,.7-.7.7.7,0,0,1,.7.7v.3a2.3,2.3,0,0,1,2-1.1,2.2,2.2,0,0,1,2.3,2.4v3.4a.7.7,0,0,1-.7.7.7.7,0,0,1-.7-.7v-2.9c0-1-.5-1.5-1.4-1.5a1.4,1.4,0,0,0-1.4,1.6v2.9a.7.7,0,0,1-1.5,0Z" transform="translate(-0.4 -23.8)" fill="#8e818c"/>
    <path d="M356.5,416.2v-3.3h-.2a.6.6,0,1,1,0-1.2h.2v-1.1a.7.7,0,0,1,1.5,0v1.1h1.1a.6.6,0,1,1,0,1.2H358V416a.7.7,0,0,0,.8.8h.4a.6.6,0,0,1,.6.6.6.6,0,0,1-.4.6l-1,.2A1.6,1.6,0,0,1,356.5,416.2Z" transform="translate(-0.4 -23.8)" fill="#8e818c"/>
    <path d="M364.7,410a.8.8,0,0,1,1.7,0h0a.8.8,0,0,1-1.7,0Zm.1,2.4a.7.7,0,0,1,.7-.7.7.7,0,0,1,.7.7v5a.7.7,0,0,1-1.5,0Z" transform="translate(-0.4 -23.8)" fill="#8e818c"/>
    <path d="M368,417.4a.6.6,0,0,1-.3-.5.6.6,0,0,1,.6-.6h.3a3.4,3.4,0,0,0,1.8.6c.6,0,1-.3,1-.7h0c0-.5-.7-.7-1.4-.9s-2-.6-2-1.9h0a2,2,0,0,1,2.3-1.9,4.4,4.4,0,0,1,2,.5.6.6,0,0,1,.3.6.6.6,0,0,1-.6.6h-.3a3.5,3.5,0,0,0-1.5-.4c-.6,0-.9.3-.9.6h0c0,.5.7.7,1.4.9s2,.7,2,1.8h0c0,1.3-1,2-2.4,2A4.3,4.3,0,0,1,368,417.4Z" transform="translate(-0.4 -23.8)" fill="#8e818c"/>
    <path d="M383.4,417.3a.7.7,0,0,1-1.5,0V417a2.3,2.3,0,0,1-2,1.1,2.2,2.2,0,0,1-2.3-2.4v-3.4a.7.7,0,1,1,1.5,0v2.9c0,1,.5,1.5,1.4,1.5a1.4,1.4,0,0,0,1.4-1.6v-2.9a.7.7,0,0,1,.7-.7.7.7,0,0,1,.7.7Z" transform="translate(-0.4 -23.8)" fill="#8e818c"/>
    <path d="M385.3,412.3a.7.7,0,0,1,.7-.7.7.7,0,0,1,.7.7v.4a2.5,2.5,0,0,1,2.2-1.2,3,3,0,0,1,2.9,3.3h0a3,3,0,0,1-2.9,3.3,2.6,2.6,0,0,1-2.2-1.1v2.2a.7.7,0,0,1-1.5,0Zm5.1,2.5h0a1.9,1.9,0,0,0-1.8-2,1.9,1.9,0,0,0-1.8,2h0a1.9,1.9,0,0,0,1.8,2A1.9,1.9,0,0,0,390.3,414.8Z" transform="translate(-0.4 -23.8)" fill="#8e818c"/>
    <path d="M399.5,417.3a.7.7,0,0,1-1.5,0v-.4a2.5,2.5,0,0,1-2.2,1.2,3,3,0,0,1-2.9-3.3h0a3,3,0,0,1,2.9-3.3,2.6,2.6,0,0,1,2.2,1.1v-2.7a.7.7,0,0,1,1.5,0Zm-5.1-2.5h0a1.9,1.9,0,0,0,1.8,2,1.9,1.9,0,0,0,1.8-2h0a1.9,1.9,0,0,0-1.8-2A1.9,1.9,0,0,0,394.4,414.8Z" transform="translate(-0.4 -23.8)" fill="#8e818c"/>
    <path d="M400.9,416.2h0c0-1.4,1.1-2,2.6-2a5.3,5.3,0,0,1,1.7.3v-.2c0-.9-.6-1.4-1.6-1.4l-1.4.3h-.2a.6.6,0,0,1-.6-.6.6.6,0,0,1,.4-.6,5.4,5.4,0,0,1,2-.4,2.8,2.8,0,0,1,2.1.7,2.6,2.6,0,0,1,.7,2v3.1a.7.7,0,0,1-.7.7.7.7,0,0,1-.7-.6v-.2a2.6,2.6,0,0,1-2.1.9A2,2,0,0,1,400.9,416.2Zm4.3-.5v-.4a4,4,0,0,0-1.4-.3c-.9,0-1.5.4-1.5,1.1h0c0,.6.5,1,1.2,1S405.3,416.5,405.3,415.7Z" transform="translate(-0.4 -23.8)" fill="#8e818c"/>
    <path d="M408.6,416.2v-3.3h-.2a.6.6,0,1,1,0-1.2h.2v-1.1a.7.7,0,0,1,1.5,0v1.1h1.1a.6.6,0,1,1,0,1.2h-1.1V416a.7.7,0,0,0,.8.8h.4a.6.6,0,0,1,.6.6.6.6,0,0,1-.4.6l-1,.2A1.6,1.6,0,0,1,408.6,416.2Z" transform="translate(-0.4 -23.8)" fill="#8e818c"/>
    <path d="M416,418.1a3.2,3.2,0,0,1-3.2-3.3h0a3.1,3.1,0,0,1,3.1-3.3,3,3,0,0,1,3,3.1.7.7,0,0,1-.7.7h-4A1.8,1.8,0,0,0,416,417a2.3,2.3,0,0,0,1.5-.6h.4a.6.6,0,0,1,.6.6.6.6,0,0,1-.2.4A3.3,3.3,0,0,1,416,418.1Zm1.4-3.8a1.6,1.6,0,0,0-1.6-1.7,1.7,1.7,0,0,0-1.6,1.7Z" transform="translate(-0.4 -23.8)" fill="#8e818c"/>
    <path d="M426.6,417.3a.7.7,0,0,1-1.5,0v-.4a2.5,2.5,0,0,1-2.2,1.2,3,3,0,0,1-2.9-3.3h0a3,3,0,0,1,2.9-3.3,2.6,2.6,0,0,1,2.2,1.1v-2.7a.7.7,0,0,1,1.5,0Zm-5.1-2.5h0a1.9,1.9,0,0,0,1.8,2,1.9,1.9,0,0,0,1.8-2h0a1.9,1.9,0,0,0-1.8-2A1.9,1.9,0,0,0,421.5,414.8Z" transform="translate(-0.4 -23.8)" fill="#8e818c"/>
  </g>
  <g>
    <path d="M312.3,331.8v-6.9a.7.7,0,0,1,.7-.7h4.9a.7.7,0,0,1,.7.7.7.7,0,0,1-.7.7h-4.1v2.2h3.6a.7.7,0,0,1,.7.7.7.7,0,0,1-.7.6h-3.6v2.3H318a.7.7,0,0,1,.7.7.7.7,0,0,1-.7.7h-4.9A.7.7,0,0,1,312.3,331.8Z" transform="translate(-0.4 -23.8)" fill="#8e818c"/>
    <path d="M320.3,324.4a.7.7,0,0,1,.7-.7.7.7,0,0,1,.7.7v7.4a.7.7,0,0,1-1.5,0Z" transform="translate(-0.4 -23.8)" fill="#8e818c"/>
    <path d="M326.5,332.6a3.2,3.2,0,0,1-3.2-3.3h0a3.1,3.1,0,0,1,3.1-3.3,3,3,0,0,1,3,3.1.7.7,0,0,1-.7.7h-4a1.8,1.8,0,0,0,1.8,1.6,2.3,2.3,0,0,0,1.5-.6h.4a.6.6,0,0,1,.6.6.6.6,0,0,1-.2.4A3.3,3.3,0,0,1,326.5,332.6Zm1.4-3.8a1.6,1.6,0,0,0-1.6-1.7,1.7,1.7,0,0,0-1.6,1.7Z" transform="translate(-0.4 -23.8)" fill="#8e818c"/>
    <path d="M330.9,326.8a.7.7,0,0,1,.7-.7.7.7,0,0,1,.7.7v.3a2.3,2.3,0,0,1,1.9-1.1,2,2,0,0,1,1.9,1.1,2.5,2.5,0,0,1,2.1-1.1,2.1,2.1,0,0,1,2.2,2.4v3.4a.7.7,0,0,1-.7.7.7.7,0,0,1-.7-.7v-2.9c0-1-.5-1.5-1.3-1.5s-1.4.6-1.4,1.6v2.9a.7.7,0,0,1-1.5,0v-3c0-1-.5-1.5-1.3-1.5a1.4,1.4,0,0,0-1.4,1.6v2.9a.7.7,0,0,1-1.5,0Z" transform="translate(-0.4 -23.8)" fill="#8e818c"/>
    <path d="M345.2,332.6a3.2,3.2,0,0,1-3.2-3.3h0A3.1,3.1,0,0,1,345,326a3,3,0,0,1,3,3.1.7.7,0,0,1-.7.7h-4a1.8,1.8,0,0,0,1.8,1.6,2.3,2.3,0,0,0,1.5-.6h.4a.6.6,0,0,1,.6.6.6.6,0,0,1-.2.4A3.3,3.3,0,0,1,345.2,332.6Zm1.4-3.8a1.6,1.6,0,0,0-1.6-1.7,1.7,1.7,0,0,0-1.6,1.7Z" transform="translate(-0.4 -23.8)" fill="#8e818c"/>
    <path d="M349.5,326.8a.7.7,0,0,1,.7-.7.7.7,0,0,1,.7.7v.3a2.3,2.3,0,0,1,2-1.1,2.2,2.2,0,0,1,2.3,2.4v3.4a.7.7,0,0,1-.7.7.7.7,0,0,1-.7-.7v-2.9c0-1-.5-1.5-1.4-1.5a1.4,1.4,0,0,0-1.4,1.6v2.9a.7.7,0,0,1-1.5,0Z" transform="translate(-0.4 -23.8)" fill="#8e818c"/>
    <path d="M357.3,330.7v-3.3H357a.6.6,0,1,1,0-1.2h.2v-1.1a.7.7,0,0,1,1.5,0v1.1h1.1a.6.6,0,1,1,0,1.2h-1.1v3.1a.7.7,0,0,0,.8.8h.4a.6.6,0,0,1,.6.6.6.6,0,0,1-.4.6l-1,.2A1.6,1.6,0,0,1,357.3,330.7Z" transform="translate(-0.4 -23.8)" fill="#8e818c"/>
    <path d="M365.5,324.5a.8.8,0,0,1,1.7,0h0a.8.8,0,0,1-1.7,0Zm.1,2.4a.7.7,0,0,1,.7-.7.7.7,0,0,1,.7.7v5a.7.7,0,0,1-1.5,0Z" transform="translate(-0.4 -23.8)" fill="#8e818c"/>
    <path d="M368.7,331.9a.6.6,0,0,1-.3-.5.6.6,0,0,1,.6-.6h.3a3.3,3.3,0,0,0,1.8.6c.6,0,1-.3,1-.7h0c0-.5-.7-.7-1.4-.9s-2-.6-2-1.9h0a2,2,0,0,1,2.3-1.9,4.4,4.4,0,0,1,2,.5.6.6,0,0,1,.3.6.6.6,0,0,1-.6.6h-.3a3.5,3.5,0,0,0-1.5-.4c-.6,0-.9.3-.9.6h0c0,.5.7.7,1.4.9s2,.7,2,1.8h0c0,1.3-1,2-2.4,2A4.3,4.3,0,0,1,368.7,331.9Z" transform="translate(-0.4 -23.8)" fill="#8e818c"/>
    <path d="M378.5,324.5a.8.8,0,0,1,1.7,0h0a.8.8,0,0,1-1.7,0Zm.1,2.4a.7.7,0,0,1,.7-.7.7.7,0,0,1,.7.7v5a.7.7,0,0,1-1.5,0Z" transform="translate(-0.4 -23.8)" fill="#8e818c"/>
    <path d="M382,326.8a.7.7,0,0,1,.7-.7.7.7,0,0,1,.7.7v.3a2.3,2.3,0,0,1,2-1.1,2.2,2.2,0,0,1,2.3,2.4v3.4a.7.7,0,0,1-.7.7.7.7,0,0,1-.7-.7v-2.9c0-1-.5-1.5-1.4-1.5a1.4,1.4,0,0,0-1.4,1.6v2.9a.7.7,0,0,1-1.5,0Z" transform="translate(-0.4 -23.8)" fill="#8e818c"/>
    <path d="M389.2,331.9a.6.6,0,0,1-.3-.5.6.6,0,0,1,.6-.6h.3a3.3,3.3,0,0,0,1.8.6c.6,0,1-.3,1-.7h0c0-.5-.7-.7-1.4-.9s-2-.6-2-1.9h0a2,2,0,0,1,2.3-1.9,4.4,4.4,0,0,1,2,.5.6.6,0,0,1,.3.6.6.6,0,0,1-.6.6h-.3a3.5,3.5,0,0,0-1.5-.4c-.6,0-.9.3-.9.6h0c0,.5.7.7,1.4.9s2,.7,2,1.8h0c0,1.3-1,2-2.4,2A4.3,4.3,0,0,1,389.2,331.9Z" transform="translate(-0.4 -23.8)" fill="#8e818c"/>
    <path d="M398.3,332.6a3.2,3.2,0,0,1-3.2-3.3h0a3.1,3.1,0,0,1,3.1-3.3,3,3,0,0,1,3,3.1.7.7,0,0,1-.7.7h-4a1.8,1.8,0,0,0,1.8,1.6,2.3,2.3,0,0,0,1.5-.6h.4a.6.6,0,0,1,.6.6.6.6,0,0,1-.2.4A3.3,3.3,0,0,1,398.3,332.6Zm1.4-3.8a1.6,1.6,0,0,0-1.6-1.7,1.7,1.7,0,0,0-1.6,1.7Z" transform="translate(-0.4 -23.8)" fill="#8e818c"/>
    <path d="M402.7,326.8a.7.7,0,0,1,.7-.7.7.7,0,0,1,.7.7v.6a2,2,0,0,1,1.6-1.4.7.7,0,0,1,.7.7.7.7,0,0,1-.6.7c-1,.2-1.7,1-1.7,2.5v1.9a.7.7,0,0,1-.7.7.7.7,0,0,1-.7-.7Z" transform="translate(-0.4 -23.8)" fill="#8e818c"/>
    <path d="M407.9,330.7v-3.3h-.2a.6.6,0,1,1,0-1.2h.2v-1.1a.7.7,0,0,1,1.5,0v1.1h1.1a.6.6,0,1,1,0,1.2h-1.1v3.1a.7.7,0,0,0,.8.8h.4a.6.6,0,0,1,.6.6.6.6,0,0,1-.4.6l-1,.2A1.6,1.6,0,0,1,407.9,330.7Z" transform="translate(-0.4 -23.8)" fill="#8e818c"/>
    <path d="M415.3,332.6a3.2,3.2,0,0,1-3.2-3.3h0a3.1,3.1,0,0,1,3.1-3.3,3,3,0,0,1,3,3.1.7.7,0,0,1-.7.7h-4a1.8,1.8,0,0,0,1.8,1.6,2.3,2.3,0,0,0,1.5-.6h.4a.6.6,0,0,1,.6.6.6.6,0,0,1-.2.4A3.3,3.3,0,0,1,415.3,332.6Zm1.4-3.8a1.6,1.6,0,0,0-1.6-1.7,1.7,1.7,0,0,0-1.6,1.7Z" transform="translate(-0.4 -23.8)" fill="#8e818c"/>
    <path d="M425.8,331.8a.7.7,0,0,1-1.5,0v-.4a2.5,2.5,0,0,1-2.2,1.2,3,3,0,0,1-2.9-3.3h0a3,3,0,0,1,2.9-3.3,2.6,2.6,0,0,1,2.2,1.1v-2.7a.7.7,0,0,1,1.5,0Zm-5.1-2.5h0a1.9,1.9,0,0,0,1.8,2,1.9,1.9,0,0,0,1.8-2h0a1.9,1.9,0,0,0-1.8-2A1.9,1.9,0,0,0,420.8,329.3Z" transform="translate(-0.4 -23.8)" fill="#8e818c"/>
  </g>
  <g>
    <rect x="215" y="67.5" width="217.5" height="94" rx="6" ry="6" transform="translate(86.9 -158.3) rotate(27)" fill="#fff" stroke="#b5b9c6" stroke-miterlimit="10" stroke-width="3"/>
    <g>
      <path d="M311.3,72.2l1.9-3.7a.7.7,0,0,1,1.3.7l-1.9,3.7c-.7,1.4-.4,2.5.8,3.1s2.2.3,2.9-1.1l1.9-3.7a.7.7,0,0,1,1.3.7l-1.9,3.6c-1.1,2.2-3,2.7-4.9,1.7S310.2,74.4,311.3,72.2Z" transform="translate(-0.4 -23.8)" fill="#0f1b2a"/>
      <path d="M321.4,72.7a.7.7,0,0,1,1-.3h.1a.9.9,0,0,1,.5.7l1.3,6.7,2.3-4.6a.7.7,0,0,1,1.3.7l-3.2,6.3a.7.7,0,0,1-1,.3h-.1a.9.9,0,0,1-.5-.7l-1.3-6.9-2.4,4.7a.7.7,0,0,1-1.3-.7Z" transform="translate(-0.4 -23.8)" fill="#0f1b2a"/>
      <path d="M329.9,77.1a.7.7,0,0,1,1-.3l2.7,1.4a3,3,0,0,1,1.6,1.7,1.9,1.9,0,0,1-.1,1.5h0a2,2,0,0,1-1.9,1.1,2.1,2.1,0,0,1,.6,2.6h0c-.7,1.3-2.1,1.5-3.8.6L327,84.2a.7.7,0,0,1-.3-1Zm.6,7.4c.9.5,1.6.4,2-.3h0c.3-.6,0-1.3-1-1.8l-2.1-1.1-1,2.1Zm1.2-3.4c.8.4,1.6.4,1.9-.3h0c.3-.6,0-1.2-.8-1.6l-1.9-1-1,2Z" transform="translate(-0.4 -23.8)" fill="#0f1b2a"/>
      <path d="M337.7,81a.7.7,0,0,1,1.3.7l-3.2,6.3a.7.7,0,0,1-1.3-.7Z" transform="translate(-0.4 -23.8)" fill="#0f1b2a"/>
      <path d="M341,82.7a.7.7,0,0,1,1-.3h.1a.9.9,0,0,1,.5.7l1.3,6.7,2.3-4.6a.7.7,0,0,1,1.3.7l-3.2,6.3a.7.7,0,0,1-1,.3h-.1a.9.9,0,0,1-.5-.7l-1.3-6.9-2.4,4.7a.7.7,0,0,1-1.3-.7Z" transform="translate(-0.4 -23.8)" fill="#0f1b2a"/>
      <path d="M349.4,87a.7.7,0,0,1,1-.3l2.1,1.1a4.2,4.2,0,0,1,2.1,5.7h0a4.2,4.2,0,0,1-5.9,1.7l-2.1-1.1a.7.7,0,0,1-.3-1Zm-.1,7a2.7,2.7,0,0,0,3.9-1.2h0a2.8,2.8,0,0,0-1.3-3.9l-1.5-.8-2.6,5.1Z" transform="translate(-0.4 -23.8)" fill="#0f1b2a"/>
    </g>
    <g>
      <rect x="229.7" y="61.6" width="47" height="54" rx="6" ry="6" transform="translate(67.4 -129.1) rotate(27)" fill="none" stroke="#d3d4dd" stroke-miterlimit="10"/>
      <g>
        <path d="M246.7,86.7l3.1-6.2a.7.7,0,0,1,1-.3l4.3,2.2a.7.7,0,0,1,.3.9.7.7,0,0,1-.9.3l-3.7-1.9-1,1.9,3.2,1.6a.7.7,0,0,1,.3.9.7.7,0,0,1-.9.3l-3.2-1.6-1,2,3.8,1.9a.7.7,0,0,1-.6,1.2L247,87.7A.7.7,0,0,1,246.7,86.7Z" transform="translate(-0.4 -23.8)" fill="#8e818c"/>
        <path d="M257,84.2a.7.7,0,0,1,1.3.7l-2.9,5.7,3.4,1.7a.7.7,0,1,1-.6,1.2l-4-2.1a.7.7,0,0,1-.3-1Z" transform="translate(-0.4 -23.8)" fill="#8e818c"/>
      </g>
    </g>
    <g>
      <rect x="277" y="91.8" width="70.6" height="54" rx="6" ry="6" transform="translate(87.6 -152.7) rotate(27)" fill="none" stroke="#d3d4dd" stroke-miterlimit="10"/>
      <g>
        <path d="M291.8,102a.7.7,0,0,1,1-.3l2.7,1.4a3,3,0,0,1,1.6,1.7,1.9,1.9,0,0,1-.1,1.5h0a2,2,0,0,1-1.9,1.1,2.1,2.1,0,0,1,.6,2.6h0c-.7,1.3-2.1,1.5-3.8.6l-2.8-1.4a.7.7,0,0,1-.3-1Zm.6,7.4c.9.5,1.6.4,2-.3h0c.3-.6,0-1.3-1-1.8l-2.1-1.1-1,2.1Zm1.2-3.4c.8.4,1.6.4,1.9-.3h0c.3-.6,0-1.2-.8-1.6l-1.9-1-1,2Z" transform="translate(-0.4 -23.8)" fill="#8e818c"/>
        <path d="M299.6,105.9a.7.7,0,0,1,1.3.7l-3.2,6.3a.7.7,0,0,1-1.3-.7Z" transform="translate(-0.4 -23.8)" fill="#8e818c"/>
        <path d="M302.9,107.6a.7.7,0,0,1,1-.3h.1a.9.9,0,0,1,.5.7l1.3,6.7,2.3-4.6a.7.7,0,0,1,1.3.7l-3.2,6.3a.7.7,0,0,1-1,.3h-.1a.9.9,0,0,1-.5-.7l-1.3-6.9-2.4,4.7a.7.7,0,0,1-1.3-.7Z" transform="translate(-0.4 -23.8)" fill="#8e818c"/>
        <path d="M311.3,111.9a.7.7,0,0,1,1-.3l2.1,1.1a4.2,4.2,0,0,1,2.1,5.7h0a4.2,4.2,0,0,1-5.9,1.7l-2.1-1.1a.7.7,0,0,1-.3-1Zm-.1,7a2.7,2.7,0,0,0,3.9-1.2h0a2.8,2.8,0,0,0-1.3-3.9l-1.5-.8-2.6,5.1Z" transform="translate(-0.4 -23.8)" fill="#8e818c"/>
        <path d="M319.8,116.2a.7.7,0,0,1,1.3.7l-3.2,6.3a.7.7,0,0,1-1.3-.7Z" transform="translate(-0.4 -23.8)" fill="#8e818c"/>
        <path d="M323.1,117.9a.7.7,0,0,1,1-.3h.1a.9.9,0,0,1,.5.7l1.3,6.7,2.3-4.6a.7.7,0,0,1,1.3.7l-3.2,6.3a.7.7,0,0,1-1,.3h-.1a.9.9,0,0,1-.5-.7l-1.3-6.9-2.4,4.7a.7.7,0,0,1-1.3-.7Z" transform="translate(-0.4 -23.8)" fill="#8e818c"/>
        <path d="M329.6,125.2h0a4.3,4.3,0,0,1,5.8-1.9,4.6,4.6,0,0,1,2.2,2.1.7.7,0,0,1,0,.7.7.7,0,0,1-1,.3l-.3-.4a3.2,3.2,0,0,0-1.5-1.5,2.8,2.8,0,0,0-3.8,1.4h0a2.8,2.8,0,0,0,1.2,4,3.4,3.4,0,0,0,2.1.4l.7-1.4-1.5-.8a.6.6,0,0,1-.3-.9.7.7,0,0,1,.9-.3l2.1,1.1a.7.7,0,0,1,.3,1l-1,2a1,1,0,0,1-.9.6,5.3,5.3,0,0,1-3.1-.5A4.2,4.2,0,0,1,329.6,125.2Z" transform="translate(-0.4 -23.8)" fill="#8e818c"/>
      </g>
    </g>
    <g>
      <rect x="346.6" y="124.8" width="61.1" height="54" rx="6" ry="6" transform="translate(109.7 -178.5) rotate(27)" fill="none" stroke="#d3d4dd" stroke-miterlimit="10"/>
      <g>
        <path d="M358.7,144.7l.5-7.5a.8.8,0,0,1,.1-.3.7.7,0,0,1,1-.3.8.8,0,0,1,.4.8l-.6,6.5,5-4.3a.8.8,0,0,1,.8-.1.7.7,0,0,1,.3,1l-.2.2-5.8,4.9a.9.9,0,0,1-1,.1h-.1A.9.9,0,0,1,358.7,144.7Z" transform="translate(-0.4 -23.8)" fill="#8e818c"/>
        <path d="M367.6,141.1a.7.7,0,0,1,1-.3h.1a.9.9,0,0,1,.5.7l1.3,6.7,2.3-4.6a.7.7,0,0,1,1.3.7l-3.2,6.3a.7.7,0,0,1-1,.3h-.1a.9.9,0,0,1-.5-.7l-1.3-6.9-2.4,4.7a.7.7,0,0,1-1.3-.7Z" transform="translate(-0.4 -23.8)" fill="#8e818c"/>
        <path d="M374.1,148.4h0a4.4,4.4,0,0,1,7.8,4h0a4.4,4.4,0,0,1-7.8-4Zm6.4,3.3h0a2.9,2.9,0,0,0-1.2-4,2.8,2.8,0,0,0-3.9,1.4h0a2.9,2.9,0,0,0,1.2,3.9A2.8,2.8,0,0,0,380.6,151.7Z" transform="translate(-0.4 -23.8)" fill="#8e818c"/>
        <path d="M385.1,150.1a.7.7,0,0,1,1-.3l2.1,1.1a4.2,4.2,0,0,1,2.1,5.7h0a4.2,4.2,0,0,1-5.9,1.7l-2.1-1.1a.7.7,0,0,1-.3-1Zm-.1,7a2.7,2.7,0,0,0,3.9-1.2h0a2.8,2.8,0,0,0-1.3-3.9l-1.5-.8-2.6,5.1Z" transform="translate(-0.4 -23.8)" fill="#8e818c"/>
        <path d="M390.4,160.5l3.1-6.2a.7.7,0,0,1,1-.3l4.3,2.2a.7.7,0,0,1,.3.9.7.7,0,0,1-.9.3l-3.7-1.9-1,1.9,3.2,1.6a.7.7,0,0,1,.3.9.7.7,0,0,1-.9.3l-3.2-1.6-1,2,3.8,1.9a.7.7,0,0,1,.3.9.7.7,0,0,1-.9.3l-4.4-2.2A.7.7,0,0,1,390.4,160.5Z" transform="translate(-0.4 -23.8)" fill="#8e818c"/>
      </g>
    </g>
  </g>
  <path d="M324,178l6.5,6.5h-5.2v3.9h-2.6v-3.9h-5.2Zm1.3,12.1v3.5h-2.6v-3.5Zm0,5.2v3.5h-2.6v-3.5Zm0,5.2V204h-2.6v-3.5Z" transform="translate(-0.4 -23.8)" fill="#231f20"/>
</svg>
